G04 #@! TF.GenerationSoftware,KiCad,Pcbnew,(5.1.9-0-10_14)*
G04 #@! TF.CreationDate,2021-12-07T20:46:31+01:00*
G04 #@! TF.ProjectId,taira-bottom-plate,74616972-612d-4626-9f74-746f6d2d706c,1.1*
G04 #@! TF.SameCoordinates,Original*
G04 #@! TF.FileFunction,Profile,NP*
%FSLAX46Y46*%
G04 Gerber Fmt 4.6, Leading zero omitted, Abs format (unit mm)*
G04 Created by KiCad (PCBNEW (5.1.9-0-10_14)) date 2021-12-07 20:46:31*
%MOMM*%
%LPD*%
G01*
G04 APERTURE LIST*
G04 #@! TA.AperFunction,Profile*
%ADD10C,0.150000*%
G04 #@! TD*
G04 APERTURE END LIST*
D10*
X115926000Y-40779000D02*
X115926000Y-44785000D01*
X115546000Y-45165000D02*
X80206000Y-45165000D01*
X115926000Y-44785000D02*
G75*
G02*
X115546000Y-45165000I-380000J0D01*
G01*
X115926000Y-40779000D02*
G75*
G02*
X116306000Y-40399000I380000J0D01*
G01*
X134542000Y-40399000D02*
X116306000Y-40399000D01*
X134922000Y-40019000D02*
G75*
G02*
X134542000Y-40399000I-380000J0D01*
G01*
X134922000Y-40019000D02*
X134922000Y-38398000D01*
X134922000Y-38398000D02*
G75*
G02*
X135302000Y-38018000I380000J0D01*
G01*
X153185000Y-38017000D02*
X135302000Y-38018000D01*
X172180000Y-40400000D02*
X153945000Y-40400000D01*
X153185000Y-38017000D02*
G75*
G02*
X153565000Y-38397000I0J-380000D01*
G01*
X153565000Y-40020000D02*
X153565000Y-38397000D01*
X153945000Y-40400000D02*
G75*
G02*
X153565000Y-40020000I0J380000D01*
G01*
X172560000Y-43379000D02*
X172560000Y-40780000D01*
X172180000Y-40400000D02*
G75*
G02*
X172560000Y-40780000I0J-380000D01*
G01*
X172940000Y-43759000D02*
G75*
G02*
X172560000Y-43379000I0J380000D01*
G01*
X191570000Y-56674000D02*
G75*
G03*
X193856000Y-58960000I2286000J0D01*
G01*
X191570000Y-46046000D02*
G75*
G03*
X189284000Y-43760000I-2286000J0D01*
G01*
X191570000Y-56674000D02*
X191570000Y-46046000D01*
X213710000Y-61246000D02*
G75*
G03*
X211424000Y-58960000I-2286000J0D01*
G01*
X213710000Y-61246000D02*
X213710000Y-119261000D01*
X193856000Y-58960000D02*
X211424000Y-58960000D01*
X189284000Y-43760000D02*
X172940000Y-43759000D01*
X213710000Y-119261000D02*
X228796000Y-127992000D01*
X229177000Y-130151000D02*
G75*
G03*
X228796000Y-127992000I-1270000J889000D01*
G01*
X212755000Y-158597000D02*
X229177000Y-130151000D01*
X210699455Y-158854935D02*
G75*
G03*
X212755000Y-158597000I902545J1126935D01*
G01*
X169040000Y-134800000D02*
X210699455Y-158854935D01*
X80206000Y-134800000D02*
X169040000Y-134800000D01*
X77920000Y-132514000D02*
G75*
G03*
X80206000Y-134800000I2286000J0D01*
G01*
X77920000Y-132514000D02*
X77920000Y-47451000D01*
X80206000Y-45165000D02*
G75*
G03*
X77920000Y-47451000I0J-2286000D01*
G01*
M02*
