G04 #@! TF.GenerationSoftware,KiCad,Pcbnew,(5.1.9-0-10_14)*
G04 #@! TF.CreationDate,2021-11-03T21:23:05+01:00*
G04 #@! TF.ProjectId,taira-top-plate,74616972-612d-4746-9f70-2d706c617465,1.0*
G04 #@! TF.SameCoordinates,Original*
G04 #@! TF.FileFunction,Legend,Bot*
G04 #@! TF.FilePolarity,Positive*
%FSLAX46Y46*%
G04 Gerber Fmt 4.6, Leading zero omitted, Abs format (unit mm)*
G04 Created by KiCad (PCBNEW (5.1.9-0-10_14)) date 2021-11-03 21:23:05*
%MOMM*%
%LPD*%
G01*
G04 APERTURE LIST*
%ADD10C,0.200000*%
%ADD11C,4.200000*%
G04 APERTURE END LIST*
D10*
X126748666Y-130362333D02*
X125948666Y-130362333D01*
X126348666Y-131762333D02*
X126348666Y-130362333D01*
X124882000Y-131762333D02*
X124882000Y-131029000D01*
X124948666Y-130895666D01*
X125082000Y-130829000D01*
X125348666Y-130829000D01*
X125482000Y-130895666D01*
X124882000Y-131695666D02*
X125015333Y-131762333D01*
X125348666Y-131762333D01*
X125482000Y-131695666D01*
X125548666Y-131562333D01*
X125548666Y-131429000D01*
X125482000Y-131295666D01*
X125348666Y-131229000D01*
X125015333Y-131229000D01*
X124882000Y-131162333D01*
X124215333Y-131762333D02*
X124215333Y-130829000D01*
X124215333Y-130362333D02*
X124282000Y-130429000D01*
X124215333Y-130495666D01*
X124148666Y-130429000D01*
X124215333Y-130362333D01*
X124215333Y-130495666D01*
X123548666Y-131762333D02*
X123548666Y-130829000D01*
X123548666Y-131095666D02*
X123482000Y-130962333D01*
X123415333Y-130895666D01*
X123282000Y-130829000D01*
X123148666Y-130829000D01*
X122082000Y-131762333D02*
X122082000Y-131029000D01*
X122148666Y-130895666D01*
X122282000Y-130829000D01*
X122548666Y-130829000D01*
X122682000Y-130895666D01*
X122082000Y-131695666D02*
X122215333Y-131762333D01*
X122548666Y-131762333D01*
X122682000Y-131695666D01*
X122748666Y-131562333D01*
X122748666Y-131429000D01*
X122682000Y-131295666D01*
X122548666Y-131229000D01*
X122215333Y-131229000D01*
X122082000Y-131162333D01*
X120482000Y-130829000D02*
X120148666Y-131762333D01*
X119815333Y-130829000D01*
X118548666Y-131762333D02*
X119348666Y-131762333D01*
X118948666Y-131762333D02*
X118948666Y-130362333D01*
X119082000Y-130562333D01*
X119215333Y-130695666D01*
X119348666Y-130762333D01*
X117948666Y-131629000D02*
X117882000Y-131695666D01*
X117948666Y-131762333D01*
X118015333Y-131695666D01*
X117948666Y-131629000D01*
X117948666Y-131762333D01*
X117015333Y-130362333D02*
X116882000Y-130362333D01*
X116748666Y-130429000D01*
X116682000Y-130495666D01*
X116615333Y-130629000D01*
X116548666Y-130895666D01*
X116548666Y-131229000D01*
X116615333Y-131495666D01*
X116682000Y-131629000D01*
X116748666Y-131695666D01*
X116882000Y-131762333D01*
X117015333Y-131762333D01*
X117148666Y-131695666D01*
X117215333Y-131629000D01*
X117282000Y-131495666D01*
X117348666Y-131229000D01*
X117348666Y-130895666D01*
X117282000Y-130629000D01*
X117215333Y-130495666D01*
X117148666Y-130429000D01*
X117015333Y-130362333D01*
X137015333Y-134062333D02*
X137015333Y-132662333D01*
X136682000Y-132662333D01*
X136482000Y-132729000D01*
X136348666Y-132862333D01*
X136282000Y-132995666D01*
X136215333Y-133262333D01*
X136215333Y-133462333D01*
X136282000Y-133729000D01*
X136348666Y-133862333D01*
X136482000Y-133995666D01*
X136682000Y-134062333D01*
X137015333Y-134062333D01*
X135082000Y-133995666D02*
X135215333Y-134062333D01*
X135482000Y-134062333D01*
X135615333Y-133995666D01*
X135682000Y-133862333D01*
X135682000Y-133329000D01*
X135615333Y-133195666D01*
X135482000Y-133129000D01*
X135215333Y-133129000D01*
X135082000Y-133195666D01*
X135015333Y-133329000D01*
X135015333Y-133462333D01*
X135682000Y-133595666D01*
X134482000Y-133995666D02*
X134348666Y-134062333D01*
X134082000Y-134062333D01*
X133948666Y-133995666D01*
X133882000Y-133862333D01*
X133882000Y-133795666D01*
X133948666Y-133662333D01*
X134082000Y-133595666D01*
X134282000Y-133595666D01*
X134415333Y-133529000D01*
X134482000Y-133395666D01*
X134482000Y-133329000D01*
X134415333Y-133195666D01*
X134282000Y-133129000D01*
X134082000Y-133129000D01*
X133948666Y-133195666D01*
X133282000Y-134062333D02*
X133282000Y-133129000D01*
X133282000Y-132662333D02*
X133348666Y-132729000D01*
X133282000Y-132795666D01*
X133215333Y-132729000D01*
X133282000Y-132662333D01*
X133282000Y-132795666D01*
X132015333Y-133129000D02*
X132015333Y-134262333D01*
X132082000Y-134395666D01*
X132148666Y-134462333D01*
X132282000Y-134529000D01*
X132482000Y-134529000D01*
X132615333Y-134462333D01*
X132015333Y-133995666D02*
X132148666Y-134062333D01*
X132415333Y-134062333D01*
X132548666Y-133995666D01*
X132615333Y-133929000D01*
X132682000Y-133795666D01*
X132682000Y-133395666D01*
X132615333Y-133262333D01*
X132548666Y-133195666D01*
X132415333Y-133129000D01*
X132148666Y-133129000D01*
X132015333Y-133195666D01*
X131348666Y-133129000D02*
X131348666Y-134062333D01*
X131348666Y-133262333D02*
X131282000Y-133195666D01*
X131148666Y-133129000D01*
X130948666Y-133129000D01*
X130815333Y-133195666D01*
X130748666Y-133329000D01*
X130748666Y-134062333D01*
X129548666Y-133995666D02*
X129682000Y-134062333D01*
X129948666Y-134062333D01*
X130082000Y-133995666D01*
X130148666Y-133862333D01*
X130148666Y-133329000D01*
X130082000Y-133195666D01*
X129948666Y-133129000D01*
X129682000Y-133129000D01*
X129548666Y-133195666D01*
X129482000Y-133329000D01*
X129482000Y-133462333D01*
X130148666Y-133595666D01*
X128282000Y-134062333D02*
X128282000Y-132662333D01*
X128282000Y-133995666D02*
X128415333Y-134062333D01*
X128682000Y-134062333D01*
X128815333Y-133995666D01*
X128882000Y-133929000D01*
X128948666Y-133795666D01*
X128948666Y-133395666D01*
X128882000Y-133262333D01*
X128815333Y-133195666D01*
X128682000Y-133129000D01*
X128415333Y-133129000D01*
X128282000Y-133195666D01*
X126548666Y-134062333D02*
X126548666Y-132662333D01*
X126548666Y-133195666D02*
X126415333Y-133129000D01*
X126148666Y-133129000D01*
X126015333Y-133195666D01*
X125948666Y-133262333D01*
X125882000Y-133395666D01*
X125882000Y-133795666D01*
X125948666Y-133929000D01*
X126015333Y-133995666D01*
X126148666Y-134062333D01*
X126415333Y-134062333D01*
X126548666Y-133995666D01*
X125415333Y-133129000D02*
X125082000Y-134062333D01*
X124748666Y-133129000D02*
X125082000Y-134062333D01*
X125215333Y-134395666D01*
X125282000Y-134462333D01*
X125415333Y-134529000D01*
X123215333Y-133995666D02*
X123082000Y-134062333D01*
X122815333Y-134062333D01*
X122682000Y-133995666D01*
X122615333Y-133862333D01*
X122615333Y-133795666D01*
X122682000Y-133662333D01*
X122815333Y-133595666D01*
X123015333Y-133595666D01*
X123148666Y-133529000D01*
X123215333Y-133395666D01*
X123215333Y-133329000D01*
X123148666Y-133195666D01*
X123015333Y-133129000D01*
X122815333Y-133129000D01*
X122682000Y-133195666D01*
X122215333Y-133129000D02*
X121682000Y-133129000D01*
X122015333Y-132662333D02*
X122015333Y-133862333D01*
X121948666Y-133995666D01*
X121815333Y-134062333D01*
X121682000Y-134062333D01*
X121215333Y-134062333D02*
X121215333Y-133129000D01*
X121215333Y-133395666D02*
X121148666Y-133262333D01*
X121082000Y-133195666D01*
X120948666Y-133129000D01*
X120815333Y-133129000D01*
X119748666Y-134062333D02*
X119748666Y-133329000D01*
X119815333Y-133195666D01*
X119948666Y-133129000D01*
X120215333Y-133129000D01*
X120348666Y-133195666D01*
X119748666Y-133995666D02*
X119882000Y-134062333D01*
X120215333Y-134062333D01*
X120348666Y-133995666D01*
X120415333Y-133862333D01*
X120415333Y-133729000D01*
X120348666Y-133595666D01*
X120215333Y-133529000D01*
X119882000Y-133529000D01*
X119748666Y-133462333D01*
X119215333Y-133129000D02*
X118882000Y-134062333D01*
X118548666Y-133129000D02*
X118882000Y-134062333D01*
X119015333Y-134395666D01*
X119082000Y-134462333D01*
X119215333Y-134529000D01*
X117482000Y-133995666D02*
X117615333Y-134062333D01*
X117882000Y-134062333D01*
X118015333Y-133995666D01*
X118082000Y-133862333D01*
X118082000Y-133329000D01*
X118015333Y-133195666D01*
X117882000Y-133129000D01*
X117615333Y-133129000D01*
X117482000Y-133195666D01*
X117415333Y-133329000D01*
X117415333Y-133462333D01*
X118082000Y-133595666D01*
X116815333Y-134062333D02*
X116815333Y-133129000D01*
X116815333Y-133395666D02*
X116748666Y-133262333D01*
X116682000Y-133195666D01*
X116548666Y-133129000D01*
X116415333Y-133129000D01*
%LPC*%
D11*
X204723000Y-134762000D03*
X165870000Y-117730000D03*
X172463000Y-94248000D03*
X134379000Y-94204000D03*
X96694000Y-116997000D03*
X172365000Y-58174000D03*
X134342000Y-58240000D03*
X96755000Y-62896000D03*
M02*
