G04 #@! TF.GenerationSoftware,KiCad,Pcbnew,(5.1.9-0-10_14)*
G04 #@! TF.CreationDate,2021-12-07T20:44:45+01:00*
G04 #@! TF.ProjectId,taira-top-plate,74616972-612d-4746-9f70-2d706c617465,1.1*
G04 #@! TF.SameCoordinates,Original*
G04 #@! TF.FileFunction,Legend,Top*
G04 #@! TF.FilePolarity,Positive*
%FSLAX46Y46*%
G04 Gerber Fmt 4.6, Leading zero omitted, Abs format (unit mm)*
G04 Created by KiCad (PCBNEW (5.1.9-0-10_14)) date 2021-12-07 20:44:45*
%MOMM*%
%LPD*%
G01*
G04 APERTURE LIST*
%ADD10C,0.200000*%
%ADD11C,4.200000*%
G04 APERTURE END LIST*
D10*
X116415333Y-130362333D02*
X117215333Y-130362333D01*
X116815333Y-131762333D02*
X116815333Y-130362333D01*
X118282000Y-131762333D02*
X118282000Y-131029000D01*
X118215333Y-130895666D01*
X118082000Y-130829000D01*
X117815333Y-130829000D01*
X117682000Y-130895666D01*
X118282000Y-131695666D02*
X118148666Y-131762333D01*
X117815333Y-131762333D01*
X117682000Y-131695666D01*
X117615333Y-131562333D01*
X117615333Y-131429000D01*
X117682000Y-131295666D01*
X117815333Y-131229000D01*
X118148666Y-131229000D01*
X118282000Y-131162333D01*
X118948666Y-131762333D02*
X118948666Y-130829000D01*
X118948666Y-130362333D02*
X118882000Y-130429000D01*
X118948666Y-130495666D01*
X119015333Y-130429000D01*
X118948666Y-130362333D01*
X118948666Y-130495666D01*
X119615333Y-131762333D02*
X119615333Y-130829000D01*
X119615333Y-131095666D02*
X119682000Y-130962333D01*
X119748666Y-130895666D01*
X119882000Y-130829000D01*
X120015333Y-130829000D01*
X121082000Y-131762333D02*
X121082000Y-131029000D01*
X121015333Y-130895666D01*
X120882000Y-130829000D01*
X120615333Y-130829000D01*
X120482000Y-130895666D01*
X121082000Y-131695666D02*
X120948666Y-131762333D01*
X120615333Y-131762333D01*
X120482000Y-131695666D01*
X120415333Y-131562333D01*
X120415333Y-131429000D01*
X120482000Y-131295666D01*
X120615333Y-131229000D01*
X120948666Y-131229000D01*
X121082000Y-131162333D01*
X122682000Y-130829000D02*
X123015333Y-131762333D01*
X123348666Y-130829000D01*
X124615333Y-131762333D02*
X123815333Y-131762333D01*
X124215333Y-131762333D02*
X124215333Y-130362333D01*
X124082000Y-130562333D01*
X123948666Y-130695666D01*
X123815333Y-130762333D01*
X125215333Y-131629000D02*
X125282000Y-131695666D01*
X125215333Y-131762333D01*
X125148666Y-131695666D01*
X125215333Y-131629000D01*
X125215333Y-131762333D01*
X126148666Y-130362333D02*
X126282000Y-130362333D01*
X126415333Y-130429000D01*
X126482000Y-130495666D01*
X126548666Y-130629000D01*
X126615333Y-130895666D01*
X126615333Y-131229000D01*
X126548666Y-131495666D01*
X126482000Y-131629000D01*
X126415333Y-131695666D01*
X126282000Y-131762333D01*
X126148666Y-131762333D01*
X126015333Y-131695666D01*
X125948666Y-131629000D01*
X125882000Y-131495666D01*
X125815333Y-131229000D01*
X125815333Y-130895666D01*
X125882000Y-130629000D01*
X125948666Y-130495666D01*
X126015333Y-130429000D01*
X126148666Y-130362333D01*
X116615333Y-134062333D02*
X116615333Y-132662333D01*
X116948666Y-132662333D01*
X117148666Y-132729000D01*
X117282000Y-132862333D01*
X117348666Y-132995666D01*
X117415333Y-133262333D01*
X117415333Y-133462333D01*
X117348666Y-133729000D01*
X117282000Y-133862333D01*
X117148666Y-133995666D01*
X116948666Y-134062333D01*
X116615333Y-134062333D01*
X118548666Y-133995666D02*
X118415333Y-134062333D01*
X118148666Y-134062333D01*
X118015333Y-133995666D01*
X117948666Y-133862333D01*
X117948666Y-133329000D01*
X118015333Y-133195666D01*
X118148666Y-133129000D01*
X118415333Y-133129000D01*
X118548666Y-133195666D01*
X118615333Y-133329000D01*
X118615333Y-133462333D01*
X117948666Y-133595666D01*
X119148666Y-133995666D02*
X119282000Y-134062333D01*
X119548666Y-134062333D01*
X119682000Y-133995666D01*
X119748666Y-133862333D01*
X119748666Y-133795666D01*
X119682000Y-133662333D01*
X119548666Y-133595666D01*
X119348666Y-133595666D01*
X119215333Y-133529000D01*
X119148666Y-133395666D01*
X119148666Y-133329000D01*
X119215333Y-133195666D01*
X119348666Y-133129000D01*
X119548666Y-133129000D01*
X119682000Y-133195666D01*
X120348666Y-134062333D02*
X120348666Y-133129000D01*
X120348666Y-132662333D02*
X120282000Y-132729000D01*
X120348666Y-132795666D01*
X120415333Y-132729000D01*
X120348666Y-132662333D01*
X120348666Y-132795666D01*
X121615333Y-133129000D02*
X121615333Y-134262333D01*
X121548666Y-134395666D01*
X121482000Y-134462333D01*
X121348666Y-134529000D01*
X121148666Y-134529000D01*
X121015333Y-134462333D01*
X121615333Y-133995666D02*
X121482000Y-134062333D01*
X121215333Y-134062333D01*
X121082000Y-133995666D01*
X121015333Y-133929000D01*
X120948666Y-133795666D01*
X120948666Y-133395666D01*
X121015333Y-133262333D01*
X121082000Y-133195666D01*
X121215333Y-133129000D01*
X121482000Y-133129000D01*
X121615333Y-133195666D01*
X122282000Y-133129000D02*
X122282000Y-134062333D01*
X122282000Y-133262333D02*
X122348666Y-133195666D01*
X122482000Y-133129000D01*
X122682000Y-133129000D01*
X122815333Y-133195666D01*
X122882000Y-133329000D01*
X122882000Y-134062333D01*
X124082000Y-133995666D02*
X123948666Y-134062333D01*
X123682000Y-134062333D01*
X123548666Y-133995666D01*
X123482000Y-133862333D01*
X123482000Y-133329000D01*
X123548666Y-133195666D01*
X123682000Y-133129000D01*
X123948666Y-133129000D01*
X124082000Y-133195666D01*
X124148666Y-133329000D01*
X124148666Y-133462333D01*
X123482000Y-133595666D01*
X125348666Y-134062333D02*
X125348666Y-132662333D01*
X125348666Y-133995666D02*
X125215333Y-134062333D01*
X124948666Y-134062333D01*
X124815333Y-133995666D01*
X124748666Y-133929000D01*
X124682000Y-133795666D01*
X124682000Y-133395666D01*
X124748666Y-133262333D01*
X124815333Y-133195666D01*
X124948666Y-133129000D01*
X125215333Y-133129000D01*
X125348666Y-133195666D01*
X127082000Y-134062333D02*
X127082000Y-132662333D01*
X127082000Y-133195666D02*
X127215333Y-133129000D01*
X127482000Y-133129000D01*
X127615333Y-133195666D01*
X127682000Y-133262333D01*
X127748666Y-133395666D01*
X127748666Y-133795666D01*
X127682000Y-133929000D01*
X127615333Y-133995666D01*
X127482000Y-134062333D01*
X127215333Y-134062333D01*
X127082000Y-133995666D01*
X128215333Y-133129000D02*
X128548666Y-134062333D01*
X128882000Y-133129000D02*
X128548666Y-134062333D01*
X128415333Y-134395666D01*
X128348666Y-134462333D01*
X128215333Y-134529000D01*
X130415333Y-133995666D02*
X130548666Y-134062333D01*
X130815333Y-134062333D01*
X130948666Y-133995666D01*
X131015333Y-133862333D01*
X131015333Y-133795666D01*
X130948666Y-133662333D01*
X130815333Y-133595666D01*
X130615333Y-133595666D01*
X130482000Y-133529000D01*
X130415333Y-133395666D01*
X130415333Y-133329000D01*
X130482000Y-133195666D01*
X130615333Y-133129000D01*
X130815333Y-133129000D01*
X130948666Y-133195666D01*
X131415333Y-133129000D02*
X131948666Y-133129000D01*
X131615333Y-132662333D02*
X131615333Y-133862333D01*
X131682000Y-133995666D01*
X131815333Y-134062333D01*
X131948666Y-134062333D01*
X132415333Y-134062333D02*
X132415333Y-133129000D01*
X132415333Y-133395666D02*
X132482000Y-133262333D01*
X132548666Y-133195666D01*
X132682000Y-133129000D01*
X132815333Y-133129000D01*
X133882000Y-134062333D02*
X133882000Y-133329000D01*
X133815333Y-133195666D01*
X133682000Y-133129000D01*
X133415333Y-133129000D01*
X133282000Y-133195666D01*
X133882000Y-133995666D02*
X133748666Y-134062333D01*
X133415333Y-134062333D01*
X133282000Y-133995666D01*
X133215333Y-133862333D01*
X133215333Y-133729000D01*
X133282000Y-133595666D01*
X133415333Y-133529000D01*
X133748666Y-133529000D01*
X133882000Y-133462333D01*
X134415333Y-133129000D02*
X134748666Y-134062333D01*
X135082000Y-133129000D02*
X134748666Y-134062333D01*
X134615333Y-134395666D01*
X134548666Y-134462333D01*
X134415333Y-134529000D01*
X136148666Y-133995666D02*
X136015333Y-134062333D01*
X135748666Y-134062333D01*
X135615333Y-133995666D01*
X135548666Y-133862333D01*
X135548666Y-133329000D01*
X135615333Y-133195666D01*
X135748666Y-133129000D01*
X136015333Y-133129000D01*
X136148666Y-133195666D01*
X136215333Y-133329000D01*
X136215333Y-133462333D01*
X135548666Y-133595666D01*
X136815333Y-134062333D02*
X136815333Y-133129000D01*
X136815333Y-133395666D02*
X136882000Y-133262333D01*
X136948666Y-133195666D01*
X137082000Y-133129000D01*
X137215333Y-133129000D01*
%LPC*%
D11*
X204723000Y-134762000D03*
X165870000Y-117730000D03*
X172463000Y-94248000D03*
X134379000Y-94204000D03*
X96694000Y-116997000D03*
X172365000Y-58174000D03*
X134342000Y-58240000D03*
X96755000Y-62896000D03*
M02*
