G04 #@! TF.GenerationSoftware,KiCad,Pcbnew,(5.1.9-0-10_14)*
G04 #@! TF.CreationDate,2021-11-03T21:23:05+01:00*
G04 #@! TF.ProjectId,taira-top-plate,74616972-612d-4746-9f70-2d706c617465,1.0*
G04 #@! TF.SameCoordinates,Original*
G04 #@! TF.FileFunction,Profile,NP*
%FSLAX46Y46*%
G04 Gerber Fmt 4.6, Leading zero omitted, Abs format (unit mm)*
G04 Created by KiCad (PCBNEW (5.1.9-0-10_14)) date 2021-11-03 21:23:05*
%MOMM*%
%LPD*%
G01*
G04 APERTURE LIST*
G04 #@! TA.AperFunction,Profile*
%ADD10C,0.150000*%
G04 #@! TD*
G04 #@! TA.AperFunction,Profile*
%ADD11C,0.120000*%
G04 #@! TD*
G04 APERTURE END LIST*
D10*
X191992438Y-106686459D02*
G75*
G02*
X191571000Y-105951000I413562J725459D01*
G01*
X191992438Y-106686459D02*
X228796000Y-127992000D01*
X115926000Y-40779000D02*
X115926000Y-44785000D01*
X115546000Y-45165000D02*
X80206000Y-45165000D01*
X115926000Y-44785000D02*
G75*
G02*
X115546000Y-45165000I-380000J0D01*
G01*
X115926000Y-40779000D02*
G75*
G02*
X116306000Y-40399000I380000J0D01*
G01*
X134542000Y-40399000D02*
X116306000Y-40399000D01*
X134922000Y-40019000D02*
G75*
G02*
X134542000Y-40399000I-380000J0D01*
G01*
X134922000Y-40019000D02*
X134922000Y-38398000D01*
X134922000Y-38398000D02*
G75*
G02*
X135302000Y-38018000I380000J0D01*
G01*
X153185000Y-38017000D02*
X135302000Y-38018000D01*
X172180000Y-40400000D02*
X153945000Y-40400000D01*
X153185000Y-38017000D02*
G75*
G02*
X153565000Y-38397000I0J-380000D01*
G01*
X153565000Y-40020000D02*
X153565000Y-38397000D01*
X153945000Y-40400000D02*
G75*
G02*
X153565000Y-40020000I0J380000D01*
G01*
X172560000Y-43379000D02*
X172560000Y-40780000D01*
X172180000Y-40400000D02*
G75*
G02*
X172560000Y-40780000I0J-380000D01*
G01*
X172940000Y-43759000D02*
G75*
G02*
X172560000Y-43379000I0J380000D01*
G01*
X191570000Y-46046000D02*
G75*
G03*
X189284000Y-43760000I-2286000J0D01*
G01*
X191571000Y-105951000D02*
X191570000Y-46046000D01*
X189284000Y-43760000D02*
X172940000Y-43759000D01*
X213710000Y-119261000D02*
X228796000Y-127992000D01*
X229177000Y-130151000D02*
G75*
G03*
X228796000Y-127992000I-1270000J889000D01*
G01*
X212755000Y-158597000D02*
X229177000Y-130151000D01*
X210699455Y-158854935D02*
G75*
G03*
X212755000Y-158597000I902545J1126935D01*
G01*
X169040000Y-134800000D02*
X210699455Y-158854935D01*
X80206000Y-134800000D02*
X169040000Y-134800000D01*
X77920000Y-132514000D02*
G75*
G03*
X80206000Y-134800000I2286000J0D01*
G01*
X77920000Y-132514000D02*
X77920000Y-47451000D01*
X80206000Y-45165000D02*
G75*
G03*
X77920000Y-47451000I0J-2286000D01*
G01*
D11*
X205897822Y-137827822D02*
X198897822Y-149952178D01*
X198897822Y-149952178D02*
X211022178Y-156952178D01*
X211022178Y-156952178D02*
X218022178Y-144827822D01*
X218022178Y-144827822D02*
X205897822Y-137827822D01*
X214967822Y-122109822D02*
X207967822Y-134234178D01*
X207967822Y-134234178D02*
X220092178Y-141234178D01*
X220092178Y-141234178D02*
X227092178Y-129109822D01*
X227092178Y-129109822D02*
X214967822Y-122109822D01*
X198397822Y-112547822D02*
X191397822Y-124672178D01*
X191397822Y-124672178D02*
X203522178Y-131672178D01*
X203522178Y-131672178D02*
X210522178Y-119547822D01*
X210522178Y-119547822D02*
X198397822Y-112547822D01*
X189327822Y-128258822D02*
X182327822Y-140383178D01*
X182327822Y-140383178D02*
X194452178Y-147383178D01*
X194452178Y-147383178D02*
X201452178Y-135258822D01*
X201452178Y-135258822D02*
X189327822Y-128258822D01*
X189245000Y-113594000D02*
X189245000Y-99594000D01*
X189245000Y-99594000D02*
X175245000Y-99594000D01*
X175245000Y-99594000D02*
X175245000Y-113594000D01*
X175245000Y-113594000D02*
X189245000Y-113594000D01*
X175245000Y-81594000D02*
X175245000Y-95594000D01*
X175245000Y-95594000D02*
X189245000Y-95594000D01*
X189245000Y-95594000D02*
X189245000Y-81594000D01*
X189245000Y-81594000D02*
X175245000Y-81594000D01*
X189245000Y-77594000D02*
X189245000Y-63594000D01*
X189245000Y-63594000D02*
X175245000Y-63594000D01*
X175245000Y-63594000D02*
X175245000Y-77594000D01*
X175245000Y-77594000D02*
X189245000Y-77594000D01*
X175245000Y-45594000D02*
X175245000Y-59594000D01*
X175245000Y-59594000D02*
X189245000Y-59594000D01*
X189245000Y-59594000D02*
X189245000Y-45594000D01*
X189245000Y-45594000D02*
X175245000Y-45594000D01*
X172742822Y-118673822D02*
X165742822Y-130798178D01*
X165742822Y-130798178D02*
X177867178Y-137798178D01*
X177867178Y-137798178D02*
X184867178Y-125673822D01*
X184867178Y-125673822D02*
X172742822Y-118673822D01*
X170245000Y-110213000D02*
X170245000Y-96213000D01*
X170245000Y-96213000D02*
X156245000Y-96213000D01*
X156245000Y-96213000D02*
X156245000Y-110213000D01*
X156245000Y-110213000D02*
X170245000Y-110213000D01*
X170245000Y-92213000D02*
X170245000Y-78213000D01*
X170245000Y-78213000D02*
X156245000Y-78213000D01*
X156245000Y-78213000D02*
X156245000Y-92213000D01*
X156245000Y-92213000D02*
X170245000Y-92213000D01*
X170245000Y-74213000D02*
X170245000Y-60213000D01*
X170245000Y-60213000D02*
X156245000Y-60213000D01*
X156245000Y-60213000D02*
X156245000Y-74213000D01*
X156245000Y-74213000D02*
X170245000Y-74213000D01*
X170245000Y-56213000D02*
X170245000Y-42213000D01*
X170245000Y-42213000D02*
X156245000Y-42213000D01*
X156245000Y-42213000D02*
X156245000Y-56213000D01*
X156245000Y-56213000D02*
X170245000Y-56213000D01*
X158441000Y-115860000D02*
X151245000Y-115860000D01*
X144441000Y-125832000D02*
X144441000Y-129860000D01*
X137245000Y-125832000D02*
X144441000Y-125832000D01*
X151245000Y-115860000D02*
X151245000Y-111832000D01*
X151245000Y-111832000D02*
X137245000Y-111832000D01*
X158441000Y-129860000D02*
X144441000Y-129860000D01*
X137245000Y-111832000D02*
X137245000Y-125832000D01*
X158441000Y-115860000D02*
X158441000Y-129860000D01*
X151245000Y-107832000D02*
X151245000Y-93832000D01*
X151245000Y-93832000D02*
X137245000Y-93832000D01*
X137245000Y-93832000D02*
X137245000Y-107832000D01*
X137245000Y-107832000D02*
X151245000Y-107832000D01*
X151245000Y-89832000D02*
X151245000Y-75832000D01*
X151245000Y-75832000D02*
X137245000Y-75832000D01*
X137245000Y-75832000D02*
X137245000Y-89832000D01*
X137245000Y-89832000D02*
X151245000Y-89832000D01*
X151245000Y-71832000D02*
X151245000Y-57832000D01*
X151245000Y-57832000D02*
X137245000Y-57832000D01*
X137245000Y-57832000D02*
X137245000Y-71832000D01*
X137245000Y-71832000D02*
X151245000Y-71832000D01*
X151245000Y-53832000D02*
X151245000Y-39832000D01*
X151245000Y-39832000D02*
X137245000Y-39832000D01*
X137245000Y-39832000D02*
X137245000Y-53832000D01*
X137245000Y-53832000D02*
X151245000Y-53832000D01*
X132245000Y-128213000D02*
X132245000Y-114213000D01*
X132245000Y-114213000D02*
X118245000Y-114213000D01*
X118245000Y-114213000D02*
X118245000Y-128213000D01*
X118245000Y-128213000D02*
X132245000Y-128213000D01*
X132245000Y-110213000D02*
X132245000Y-96213000D01*
X132245000Y-96213000D02*
X118245000Y-96213000D01*
X118245000Y-96213000D02*
X118245000Y-110213000D01*
X118245000Y-110213000D02*
X132245000Y-110213000D01*
X132245000Y-92213000D02*
X132245000Y-78213000D01*
X132245000Y-78213000D02*
X118245000Y-78213000D01*
X118245000Y-78213000D02*
X118245000Y-92213000D01*
X118245000Y-92213000D02*
X132245000Y-92213000D01*
X132245000Y-74213000D02*
X132245000Y-60213000D01*
X132245000Y-60213000D02*
X118245000Y-60213000D01*
X118245000Y-60213000D02*
X118245000Y-74213000D01*
X118245000Y-74213000D02*
X132245000Y-74213000D01*
X132245000Y-56213000D02*
X132245000Y-42213000D01*
X132245000Y-42213000D02*
X118245000Y-42213000D01*
X118245000Y-42213000D02*
X118245000Y-56213000D01*
X118245000Y-56213000D02*
X132245000Y-56213000D01*
X113245000Y-132975000D02*
X113245000Y-118975000D01*
X113245000Y-118975000D02*
X99245000Y-118975000D01*
X99245000Y-118975000D02*
X99245000Y-132975000D01*
X99245000Y-132975000D02*
X113245000Y-132975000D01*
X113245000Y-114975000D02*
X113245000Y-100975000D01*
X113245000Y-100975000D02*
X99245000Y-100975000D01*
X99245000Y-100975000D02*
X99245000Y-114975000D01*
X99245000Y-114975000D02*
X113245000Y-114975000D01*
X113245000Y-96975000D02*
X113245000Y-82975000D01*
X113245000Y-82975000D02*
X99245000Y-82975000D01*
X99245000Y-82975000D02*
X99245000Y-96975000D01*
X99245000Y-96975000D02*
X113245000Y-96975000D01*
X113245000Y-78975000D02*
X113245000Y-64975000D01*
X113245000Y-64975000D02*
X99245000Y-64975000D01*
X99245000Y-64975000D02*
X99245000Y-78975000D01*
X99245000Y-78975000D02*
X113245000Y-78975000D01*
X113245000Y-60975000D02*
X113245000Y-46975000D01*
X113245000Y-46975000D02*
X99245000Y-46975000D01*
X99245000Y-46975000D02*
X99245000Y-60975000D01*
X99245000Y-60975000D02*
X113245000Y-60975000D01*
X94245000Y-132975000D02*
X94245000Y-118975000D01*
X94245000Y-118975000D02*
X80245000Y-118975000D01*
X80245000Y-118975000D02*
X80245000Y-132975000D01*
X80245000Y-132975000D02*
X94245000Y-132975000D01*
X94245000Y-114975000D02*
X94245000Y-100975000D01*
X94245000Y-100975000D02*
X80245000Y-100975000D01*
X80245000Y-100975000D02*
X80245000Y-114975000D01*
X80245000Y-114975000D02*
X94245000Y-114975000D01*
X94245000Y-96975000D02*
X94245000Y-82975000D01*
X94245000Y-82975000D02*
X80245000Y-82975000D01*
X80245000Y-82975000D02*
X80245000Y-96975000D01*
X80245000Y-96975000D02*
X94245000Y-96975000D01*
X94245000Y-78975000D02*
X94245000Y-64975000D01*
X94245000Y-64975000D02*
X80245000Y-64975000D01*
X80245000Y-64975000D02*
X80245000Y-78975000D01*
X80245000Y-78975000D02*
X94245000Y-78975000D01*
X94245000Y-60975000D02*
X94245000Y-46975000D01*
X94245000Y-46975000D02*
X80245000Y-46975000D01*
X80245000Y-46975000D02*
X80245000Y-60975000D01*
X80245000Y-60975000D02*
X94245000Y-60975000D01*
M02*
