G04 #@! TF.GenerationSoftware,KiCad,Pcbnew,(5.1.9-0-10_14)*
G04 #@! TF.CreationDate,2021-11-12T15:23:44+01:00*
G04 #@! TF.ProjectId,tairakb,74616972-616b-4622-9e6b-696361645f70,1.1*
G04 #@! TF.SameCoordinates,Original*
G04 #@! TF.FileFunction,Paste,Bot*
G04 #@! TF.FilePolarity,Positive*
%FSLAX46Y46*%
G04 Gerber Fmt 4.6, Leading zero omitted, Abs format (unit mm)*
G04 Created by KiCad (PCBNEW (5.1.9-0-10_14)) date 2021-11-12 15:23:44*
%MOMM*%
%LPD*%
G01*
G04 APERTURE LIST*
%ADD10C,0.100000*%
%ADD11R,0.950000X1.300000*%
%ADD12R,1.300000X0.950000*%
%ADD13R,1.600000X2.200000*%
G04 APERTURE END LIST*
D10*
G36*
X200983862Y-145485222D02*
G01*
X200161138Y-145010222D01*
X200811138Y-143884388D01*
X201633862Y-144359388D01*
X200983862Y-145485222D01*
G37*
G36*
X199208862Y-148559612D02*
G01*
X198386138Y-148084612D01*
X199036138Y-146958778D01*
X199858862Y-147433778D01*
X199208862Y-148559612D01*
G37*
G36*
X210089862Y-129773222D02*
G01*
X209267138Y-129298222D01*
X209917138Y-128172388D01*
X210739862Y-128647388D01*
X210089862Y-129773222D01*
G37*
G36*
X208314862Y-132847612D02*
G01*
X207492138Y-132372612D01*
X208142138Y-131246778D01*
X208964862Y-131721778D01*
X208314862Y-132847612D01*
G37*
G36*
X193451862Y-120164222D02*
G01*
X192629138Y-119689222D01*
X193279138Y-118563388D01*
X194101862Y-119038388D01*
X193451862Y-120164222D01*
G37*
G36*
X191676862Y-123238612D02*
G01*
X190854138Y-122763612D01*
X191504138Y-121637778D01*
X192326862Y-122112778D01*
X191676862Y-123238612D01*
G37*
G36*
X184391862Y-135883222D02*
G01*
X183569138Y-135408222D01*
X184219138Y-134282388D01*
X185041862Y-134757388D01*
X184391862Y-135883222D01*
G37*
G36*
X182616862Y-138957612D02*
G01*
X181794138Y-138482612D01*
X182444138Y-137356778D01*
X183266862Y-137831778D01*
X182616862Y-138957612D01*
G37*
D11*
X174431000Y-107335000D03*
X174431000Y-103785000D03*
X174259000Y-81902000D03*
X174259000Y-78352000D03*
X174431000Y-71335000D03*
X174431000Y-67785000D03*
D12*
X184061000Y-58331000D03*
X180511000Y-58331000D03*
D10*
G36*
X167798862Y-126357222D02*
G01*
X166976138Y-125882222D01*
X167626138Y-124756388D01*
X168448862Y-125231388D01*
X167798862Y-126357222D01*
G37*
G36*
X166023862Y-129431612D02*
G01*
X165201138Y-128956612D01*
X165851138Y-127830778D01*
X166673862Y-128305778D01*
X166023862Y-129431612D01*
G37*
D11*
X171132000Y-103727000D03*
X171132000Y-100177000D03*
X171132000Y-85727000D03*
X171132000Y-82177000D03*
X171132000Y-67727000D03*
X171132000Y-64177000D03*
X171132000Y-49727000D03*
X171132000Y-46177000D03*
D12*
X150793000Y-120856000D03*
X147243000Y-120856000D03*
D11*
X152150000Y-101345000D03*
X152150000Y-97795000D03*
X152150000Y-83345000D03*
X152150000Y-79795000D03*
X152150000Y-65345000D03*
X152150000Y-61795000D03*
X152150000Y-47345000D03*
X152150000Y-43795000D03*
X133133000Y-121690000D03*
X133133000Y-118140000D03*
X133133000Y-103690000D03*
X133133000Y-100140000D03*
X133133000Y-85690000D03*
X133133000Y-82140000D03*
X133133000Y-67690000D03*
X133133000Y-64140000D03*
X133133000Y-49690000D03*
X133133000Y-46140000D03*
X114118000Y-126415000D03*
X114118000Y-122865000D03*
X114118000Y-108415000D03*
X114118000Y-104865000D03*
X114118000Y-90415000D03*
X114118000Y-86865000D03*
X114118000Y-72415000D03*
X114118000Y-68865000D03*
X114118000Y-54415000D03*
X114118000Y-50865000D03*
X95118000Y-126415000D03*
X95118000Y-122865000D03*
X95118000Y-108415000D03*
X95118000Y-104865000D03*
X95118000Y-90415000D03*
X95118000Y-86865000D03*
X95118000Y-72415000D03*
X95118000Y-68865000D03*
X95118000Y-54415000D03*
X95118000Y-50865000D03*
D10*
G36*
X207742309Y-141433078D02*
G01*
X208842309Y-139527822D01*
X210227949Y-140327822D01*
X209127949Y-142233078D01*
X207742309Y-141433078D01*
G37*
G36*
X215822178Y-148638334D02*
G01*
X216922178Y-146733078D01*
X218307818Y-147533078D01*
X217207818Y-149438334D01*
X215822178Y-148638334D01*
G37*
G36*
X200242309Y-116153078D02*
G01*
X201342309Y-114247822D01*
X202727949Y-115047822D01*
X201627949Y-116953078D01*
X200242309Y-116153078D01*
G37*
G36*
X208322178Y-123358334D02*
G01*
X209422178Y-121453078D01*
X210807818Y-122253078D01*
X209707818Y-124158334D01*
X208322178Y-123358334D01*
G37*
D13*
X156241000Y-128760000D03*
X145641000Y-126560000D03*
X128045000Y-55113000D03*
X117445000Y-52913000D03*
D10*
G36*
X216812309Y-125715078D02*
G01*
X217912309Y-123809822D01*
X219297949Y-124609822D01*
X218197949Y-126515078D01*
X216812309Y-125715078D01*
G37*
G36*
X224892178Y-132920334D02*
G01*
X225992178Y-131015078D01*
X227377818Y-131815078D01*
X226277818Y-133720334D01*
X224892178Y-132920334D01*
G37*
G36*
X191172309Y-131864078D02*
G01*
X192272309Y-129958822D01*
X193657949Y-130758822D01*
X192557949Y-132664078D01*
X191172309Y-131864078D01*
G37*
G36*
X199252178Y-139069334D02*
G01*
X200352178Y-137164078D01*
X201737818Y-137964078D01*
X200637818Y-139869334D01*
X199252178Y-139069334D01*
G37*
D13*
X185045000Y-112494000D03*
X174445000Y-110294000D03*
X179445000Y-82694000D03*
X190045000Y-84894000D03*
X185045000Y-76494000D03*
X174445000Y-74294000D03*
X179445000Y-46694000D03*
X190045000Y-48894000D03*
D10*
G36*
X174587309Y-122279078D02*
G01*
X175687309Y-120373822D01*
X177072949Y-121173822D01*
X175972949Y-123079078D01*
X174587309Y-122279078D01*
G37*
G36*
X182667178Y-129484334D02*
G01*
X183767178Y-127579078D01*
X185152818Y-128379078D01*
X184052818Y-130284334D01*
X182667178Y-129484334D01*
G37*
D13*
X166045000Y-109113000D03*
X155445000Y-106913000D03*
X166045000Y-91113000D03*
X155445000Y-88913000D03*
X166045000Y-73113000D03*
X155445000Y-70913000D03*
X166045000Y-55113000D03*
X155445000Y-52913000D03*
X141445000Y-112932000D03*
X152045000Y-115132000D03*
X147045000Y-106732000D03*
X136445000Y-104532000D03*
X147045000Y-88732000D03*
X136445000Y-86532000D03*
X147045000Y-70732000D03*
X136445000Y-68532000D03*
X147045000Y-52732000D03*
X136445000Y-50532000D03*
X128045000Y-127113000D03*
X117445000Y-124913000D03*
X128045000Y-109113000D03*
X117445000Y-106913000D03*
X128045000Y-91113000D03*
X117445000Y-88913000D03*
X128045000Y-73113000D03*
X117445000Y-70913000D03*
X109045000Y-131875000D03*
X98445000Y-129675000D03*
X109045000Y-113875000D03*
X98445000Y-111675000D03*
X109045000Y-95875000D03*
X98445000Y-93675000D03*
X109045000Y-77875000D03*
X98445000Y-75675000D03*
X109045000Y-59875000D03*
X98445000Y-57675000D03*
X90045000Y-131875000D03*
X79445000Y-129675000D03*
X90045000Y-113875000D03*
X79445000Y-111675000D03*
X90045000Y-95875000D03*
X79445000Y-93675000D03*
X90045000Y-77875000D03*
X79445000Y-75675000D03*
X90045000Y-59875000D03*
X79445000Y-57675000D03*
M02*
