G04 #@! TF.GenerationSoftware,KiCad,Pcbnew,(5.1.9-0-10_14)*
G04 #@! TF.CreationDate,2021-11-12T15:23:44+01:00*
G04 #@! TF.ProjectId,tairakb,74616972-616b-4622-9e6b-696361645f70,1.1*
G04 #@! TF.SameCoordinates,Original*
G04 #@! TF.FileFunction,Copper,L1,Top*
G04 #@! TF.FilePolarity,Positive*
%FSLAX46Y46*%
G04 Gerber Fmt 4.6, Leading zero omitted, Abs format (unit mm)*
G04 Created by KiCad (PCBNEW (5.1.9-0-10_14)) date 2021-11-12 15:23:44*
%MOMM*%
%LPD*%
G01*
G04 APERTURE LIST*
G04 #@! TA.AperFunction,ComponentPad*
%ADD10C,2.000000*%
G04 #@! TD*
G04 #@! TA.AperFunction,ComponentPad*
%ADD11C,1.500000*%
G04 #@! TD*
G04 #@! TA.AperFunction,SMDPad,CuDef*
%ADD12C,0.100000*%
G04 #@! TD*
G04 #@! TA.AperFunction,SMDPad,CuDef*
%ADD13R,0.950000X1.300000*%
G04 #@! TD*
G04 #@! TA.AperFunction,SMDPad,CuDef*
%ADD14R,1.300000X0.950000*%
G04 #@! TD*
G04 #@! TA.AperFunction,ComponentPad*
%ADD15C,1.524000*%
G04 #@! TD*
G04 #@! TA.AperFunction,ComponentPad*
%ADD16C,5.000000*%
G04 #@! TD*
G04 #@! TA.AperFunction,SMDPad,CuDef*
%ADD17R,1.600000X2.200000*%
G04 #@! TD*
G04 #@! TA.AperFunction,ViaPad*
%ADD18C,0.800000*%
G04 #@! TD*
G04 #@! TA.AperFunction,Conductor*
%ADD19C,0.250000*%
G04 #@! TD*
G04 #@! TA.AperFunction,Conductor*
%ADD20C,0.254000*%
G04 #@! TD*
G04 #@! TA.AperFunction,Conductor*
%ADD21C,0.100000*%
G04 #@! TD*
G04 APERTURE END LIST*
D10*
X202365000Y-107451000D03*
X202365000Y-100951000D03*
D11*
X209000000Y-103600000D03*
X209000000Y-101100000D03*
X209000000Y-98600000D03*
D10*
X209141000Y-112587000D03*
G04 #@! TA.AperFunction,ComponentPad*
G36*
G01*
X208391000Y-107087000D02*
X209891000Y-107087000D01*
G75*
G02*
X210141000Y-107337000I0J-250000D01*
G01*
X210141000Y-108837000D01*
G75*
G02*
X209891000Y-109087000I-250000J0D01*
G01*
X208391000Y-109087000D01*
G75*
G02*
X208141000Y-108837000I0J250000D01*
G01*
X208141000Y-107337000D01*
G75*
G02*
X208391000Y-107087000I250000J0D01*
G01*
G37*
G04 #@! TD.AperFunction*
G04 #@! TA.AperFunction,SMDPad,CuDef*
D12*
G36*
X199208862Y-148559612D02*
G01*
X198386138Y-148084612D01*
X199036138Y-146958778D01*
X199858862Y-147433778D01*
X199208862Y-148559612D01*
G37*
G04 #@! TD.AperFunction*
G04 #@! TA.AperFunction,SMDPad,CuDef*
G36*
X200983862Y-145485222D02*
G01*
X200161138Y-145010222D01*
X200811138Y-143884388D01*
X201633862Y-144359388D01*
X200983862Y-145485222D01*
G37*
G04 #@! TD.AperFunction*
G04 #@! TA.AperFunction,SMDPad,CuDef*
G36*
X208314862Y-132847612D02*
G01*
X207492138Y-132372612D01*
X208142138Y-131246778D01*
X208964862Y-131721778D01*
X208314862Y-132847612D01*
G37*
G04 #@! TD.AperFunction*
G04 #@! TA.AperFunction,SMDPad,CuDef*
G36*
X210089862Y-129773222D02*
G01*
X209267138Y-129298222D01*
X209917138Y-128172388D01*
X210739862Y-128647388D01*
X210089862Y-129773222D01*
G37*
G04 #@! TD.AperFunction*
G04 #@! TA.AperFunction,SMDPad,CuDef*
G36*
X191676862Y-123238612D02*
G01*
X190854138Y-122763612D01*
X191504138Y-121637778D01*
X192326862Y-122112778D01*
X191676862Y-123238612D01*
G37*
G04 #@! TD.AperFunction*
G04 #@! TA.AperFunction,SMDPad,CuDef*
G36*
X193451862Y-120164222D02*
G01*
X192629138Y-119689222D01*
X193279138Y-118563388D01*
X194101862Y-119038388D01*
X193451862Y-120164222D01*
G37*
G04 #@! TD.AperFunction*
G04 #@! TA.AperFunction,SMDPad,CuDef*
G36*
X182616862Y-138957612D02*
G01*
X181794138Y-138482612D01*
X182444138Y-137356778D01*
X183266862Y-137831778D01*
X182616862Y-138957612D01*
G37*
G04 #@! TD.AperFunction*
G04 #@! TA.AperFunction,SMDPad,CuDef*
G36*
X184391862Y-135883222D02*
G01*
X183569138Y-135408222D01*
X184219138Y-134282388D01*
X185041862Y-134757388D01*
X184391862Y-135883222D01*
G37*
G04 #@! TD.AperFunction*
D13*
X174431000Y-103785000D03*
X174431000Y-107335000D03*
X174259000Y-78352000D03*
X174259000Y-81902000D03*
X174431000Y-67785000D03*
X174431000Y-71335000D03*
D14*
X180511000Y-58331000D03*
X184061000Y-58331000D03*
G04 #@! TA.AperFunction,SMDPad,CuDef*
D12*
G36*
X166023862Y-129431612D02*
G01*
X165201138Y-128956612D01*
X165851138Y-127830778D01*
X166673862Y-128305778D01*
X166023862Y-129431612D01*
G37*
G04 #@! TD.AperFunction*
G04 #@! TA.AperFunction,SMDPad,CuDef*
G36*
X167798862Y-126357222D02*
G01*
X166976138Y-125882222D01*
X167626138Y-124756388D01*
X168448862Y-125231388D01*
X167798862Y-126357222D01*
G37*
G04 #@! TD.AperFunction*
D13*
X171132000Y-100177000D03*
X171132000Y-103727000D03*
X171132000Y-82177000D03*
X171132000Y-85727000D03*
X171132000Y-64177000D03*
X171132000Y-67727000D03*
X171132000Y-46177000D03*
X171132000Y-49727000D03*
D14*
X147243000Y-120856000D03*
X150793000Y-120856000D03*
D13*
X152150000Y-97795000D03*
X152150000Y-101345000D03*
X152150000Y-79795000D03*
X152150000Y-83345000D03*
X152150000Y-61795000D03*
X152150000Y-65345000D03*
X152150000Y-43795000D03*
X152150000Y-47345000D03*
X133133000Y-118140000D03*
X133133000Y-121690000D03*
X133133000Y-100140000D03*
X133133000Y-103690000D03*
X133133000Y-82140000D03*
X133133000Y-85690000D03*
X133133000Y-64140000D03*
X133133000Y-67690000D03*
X133133000Y-46140000D03*
X133133000Y-49690000D03*
X114118000Y-122865000D03*
X114118000Y-126415000D03*
X114118000Y-104865000D03*
X114118000Y-108415000D03*
X114118000Y-86865000D03*
X114118000Y-90415000D03*
X114118000Y-68865000D03*
X114118000Y-72415000D03*
X114118000Y-50865000D03*
X114118000Y-54415000D03*
X95118000Y-122865000D03*
X95118000Y-126415000D03*
X95118000Y-104865000D03*
X95118000Y-108415000D03*
X95118000Y-86865000D03*
X95118000Y-90415000D03*
X95118000Y-68865000D03*
X95118000Y-72415000D03*
X95118000Y-50865000D03*
X95118000Y-54415000D03*
D15*
X210795000Y-64363600D03*
X210795000Y-66903600D03*
X210795000Y-69443600D03*
X210795000Y-71983600D03*
X210795000Y-74523600D03*
X210795000Y-77063600D03*
X210795000Y-79603600D03*
X210795000Y-82143600D03*
X210795000Y-84683600D03*
X210795000Y-87223600D03*
X210795000Y-89763600D03*
X210795000Y-92303600D03*
X195555000Y-92303600D03*
X195555000Y-89763600D03*
X195555000Y-87223600D03*
X195555000Y-84683600D03*
X195555000Y-82143600D03*
X195555000Y-79603600D03*
X195555000Y-77063600D03*
X195555000Y-74523600D03*
X195555000Y-71983600D03*
X195555000Y-69443600D03*
X195555000Y-66903600D03*
X195555000Y-64363600D03*
X212101400Y-63093600D03*
X212101400Y-65633600D03*
X212101400Y-68173600D03*
X212101400Y-70713600D03*
X212101400Y-73253600D03*
X212101400Y-75793600D03*
X212101400Y-78333600D03*
X212101400Y-80873600D03*
X212101400Y-83413600D03*
X212101400Y-85953600D03*
X212101400Y-88493600D03*
X212101400Y-91033600D03*
X196881400Y-91033600D03*
X196881400Y-88493600D03*
X196881400Y-85953600D03*
X196881400Y-83413600D03*
X196881400Y-80873600D03*
X196881400Y-78333600D03*
X196881400Y-75793600D03*
X196881400Y-73253600D03*
X196881400Y-70713600D03*
X196881400Y-68173600D03*
X196881400Y-65633600D03*
X196881400Y-63093600D03*
G04 #@! TA.AperFunction,SMDPad,CuDef*
D12*
G36*
X202225579Y-140788334D02*
G01*
X203325579Y-138883078D01*
X204711219Y-139683078D01*
X203611219Y-141588334D01*
X202225579Y-140788334D01*
G37*
G04 #@! TD.AperFunction*
G04 #@! TA.AperFunction,SMDPad,CuDef*
G36*
X212592051Y-144233078D02*
G01*
X213692051Y-142327822D01*
X215077691Y-143127822D01*
X213977691Y-145033078D01*
X212592051Y-144233078D01*
G37*
G04 #@! TD.AperFunction*
G04 #@! TA.AperFunction,SMDPad,CuDef*
G36*
X194725579Y-115508334D02*
G01*
X195825579Y-113603078D01*
X197211219Y-114403078D01*
X196111219Y-116308334D01*
X194725579Y-115508334D01*
G37*
G04 #@! TD.AperFunction*
G04 #@! TA.AperFunction,SMDPad,CuDef*
G36*
X205092051Y-118953078D02*
G01*
X206192051Y-117047822D01*
X207577691Y-117847822D01*
X206477691Y-119753078D01*
X205092051Y-118953078D01*
G37*
G04 #@! TD.AperFunction*
D16*
X172365000Y-58174000D03*
X134379000Y-94204000D03*
X204723000Y-134762000D03*
X165870000Y-117730000D03*
X172463000Y-94248000D03*
X96694000Y-116997000D03*
X134342000Y-58240000D03*
X96755000Y-62896000D03*
D17*
X161341000Y-126560000D03*
X150641000Y-128760000D03*
X133145000Y-52913000D03*
X122445000Y-55113000D03*
G04 #@! TA.AperFunction,SMDPad,CuDef*
D12*
G36*
X211295579Y-125070334D02*
G01*
X212395579Y-123165078D01*
X213781219Y-123965078D01*
X212681219Y-125870334D01*
X211295579Y-125070334D01*
G37*
G04 #@! TD.AperFunction*
G04 #@! TA.AperFunction,SMDPad,CuDef*
G36*
X221662051Y-128515078D02*
G01*
X222762051Y-126609822D01*
X224147691Y-127409822D01*
X223047691Y-129315078D01*
X221662051Y-128515078D01*
G37*
G04 #@! TD.AperFunction*
G04 #@! TA.AperFunction,SMDPad,CuDef*
G36*
X185655579Y-131219334D02*
G01*
X186755579Y-129314078D01*
X188141219Y-130114078D01*
X187041219Y-132019334D01*
X185655579Y-131219334D01*
G37*
G04 #@! TD.AperFunction*
G04 #@! TA.AperFunction,SMDPad,CuDef*
G36*
X196022051Y-134664078D02*
G01*
X197122051Y-132758822D01*
X198507691Y-133558822D01*
X197407691Y-135464078D01*
X196022051Y-134664078D01*
G37*
G04 #@! TD.AperFunction*
D17*
X190145000Y-110294000D03*
X179445000Y-112494000D03*
X174345000Y-84894000D03*
X185045000Y-82694000D03*
X190145000Y-74294000D03*
X179445000Y-76494000D03*
X174345000Y-48894000D03*
X185045000Y-46694000D03*
G04 #@! TA.AperFunction,SMDPad,CuDef*
D12*
G36*
X169070579Y-121634334D02*
G01*
X170170579Y-119729078D01*
X171556219Y-120529078D01*
X170456219Y-122434334D01*
X169070579Y-121634334D01*
G37*
G04 #@! TD.AperFunction*
G04 #@! TA.AperFunction,SMDPad,CuDef*
G36*
X179437051Y-125079078D02*
G01*
X180537051Y-123173822D01*
X181922691Y-123973822D01*
X180822691Y-125879078D01*
X179437051Y-125079078D01*
G37*
G04 #@! TD.AperFunction*
D17*
X171145000Y-106913000D03*
X160445000Y-109113000D03*
X171145000Y-88913000D03*
X160445000Y-91113000D03*
X171145000Y-70913000D03*
X160445000Y-73113000D03*
X171145000Y-52913000D03*
X160445000Y-55113000D03*
X136345000Y-115132000D03*
X147045000Y-112932000D03*
X152145000Y-104532000D03*
X141445000Y-106732000D03*
X152145000Y-86532000D03*
X141445000Y-88732000D03*
X152145000Y-68532000D03*
X141445000Y-70732000D03*
X152145000Y-50532000D03*
X141445000Y-52732000D03*
X133145000Y-124913000D03*
X122445000Y-127113000D03*
X133145000Y-106913000D03*
X122445000Y-109113000D03*
X133145000Y-88913000D03*
X122445000Y-91113000D03*
X133145000Y-70913000D03*
X122445000Y-73113000D03*
X114145000Y-129675000D03*
X103445000Y-131875000D03*
X114145000Y-111675000D03*
X103445000Y-113875000D03*
X114145000Y-93675000D03*
X103445000Y-95875000D03*
X114145000Y-75675000D03*
X103445000Y-77875000D03*
X114145000Y-57675000D03*
X103445000Y-59875000D03*
X95145000Y-129675000D03*
X84445000Y-131875000D03*
X95145000Y-111675000D03*
X84445000Y-113875000D03*
X95145000Y-93675000D03*
X84445000Y-95875000D03*
X95145000Y-75675000D03*
X84445000Y-77875000D03*
X95145000Y-57675000D03*
X84445000Y-59875000D03*
D18*
X212330147Y-140392770D03*
X221511651Y-124733323D03*
X205028773Y-115223274D03*
X95097000Y-67449000D03*
X114127000Y-67215000D03*
X133137000Y-62595000D03*
X152155000Y-60186000D03*
X171125000Y-62625000D03*
X174424000Y-66328000D03*
X198878000Y-82255000D03*
X95096000Y-85328000D03*
X114093000Y-85215000D03*
X133137000Y-80561000D03*
X152125000Y-78219000D03*
X190863000Y-123789000D03*
X171126000Y-80635000D03*
X174239000Y-76784000D03*
X189637000Y-87429000D03*
X190293000Y-88914000D03*
X198903600Y-84683600D03*
X95152000Y-103411000D03*
X114130000Y-103355000D03*
X133137000Y-98529000D03*
X152123000Y-96233000D03*
X209150000Y-132813000D03*
X171127000Y-98677000D03*
X174432000Y-102218000D03*
X200974000Y-87266000D03*
X95152000Y-121284000D03*
X114131000Y-121252000D03*
X133137000Y-116540000D03*
X146160000Y-120863000D03*
X165319000Y-129858000D03*
X181937000Y-139163000D03*
X198321000Y-149040000D03*
X191042939Y-89648000D03*
X189331000Y-91386000D03*
X189305000Y-119011000D03*
X186749000Y-121516000D03*
X186749000Y-123766000D03*
X198571000Y-89772000D03*
X198980000Y-70801000D03*
X87162000Y-62041000D03*
X87274336Y-79974797D03*
X87273920Y-97974803D03*
X87332717Y-115973170D03*
X87281993Y-133974676D03*
X106264000Y-116051000D03*
X106301624Y-97974239D03*
X106260000Y-80018000D03*
X106261095Y-61974940D03*
X107435000Y-128490000D03*
X185426654Y-118522654D03*
X183448487Y-118450210D03*
X125345079Y-129210616D03*
X125272441Y-111212823D03*
X125195208Y-93212412D03*
X125269643Y-75212858D03*
X125230000Y-57265000D03*
X187149307Y-117825307D03*
X183423047Y-117450532D03*
X144107000Y-109755000D03*
X144182069Y-90831059D03*
X144287000Y-72878000D03*
X144211000Y-54929000D03*
X153619000Y-130883000D03*
X179795000Y-119934000D03*
X174144000Y-116085000D03*
X177746276Y-119916724D03*
X165991999Y-110938001D03*
X163332000Y-93289000D03*
X163296079Y-75212380D03*
X163258401Y-57212959D03*
X194281776Y-129452224D03*
X182299000Y-114683000D03*
X182249000Y-49490000D03*
X188270000Y-125477000D03*
X188270000Y-123789001D03*
X181581499Y-86260499D03*
X179445000Y-71953000D03*
X198878000Y-76988000D03*
X198929000Y-74483000D03*
X199031000Y-66864000D03*
X199031000Y-64358000D03*
X205883000Y-91052000D03*
X95097000Y-49361000D03*
X114127000Y-49289000D03*
X133135000Y-44536000D03*
X152152000Y-42089000D03*
X171125000Y-44738000D03*
X180510000Y-56992000D03*
X198878000Y-79545000D03*
X87325000Y-56989000D03*
X96726000Y-54413000D03*
X87279000Y-75042000D03*
X96671000Y-72387000D03*
X87278000Y-93135000D03*
X96671000Y-90434000D03*
X87278000Y-111211000D03*
X96727000Y-108463000D03*
X87224000Y-129023000D03*
X96782000Y-126390000D03*
X106260000Y-57008000D03*
X115760000Y-54410000D03*
X106260000Y-74860000D03*
X115760000Y-72410000D03*
X106226000Y-92941000D03*
X115726000Y-90410000D03*
X106226000Y-110930000D03*
X115688000Y-108439000D03*
X106226000Y-128934000D03*
X115653000Y-126410000D03*
X125379000Y-52107000D03*
X134731000Y-49695000D03*
X125306000Y-70223000D03*
X134695000Y-67679000D03*
X125270000Y-88317000D03*
X134696000Y-85719000D03*
X125233000Y-106053000D03*
X134733000Y-103688000D03*
X125270000Y-124178000D03*
X134733000Y-121698000D03*
X144396000Y-49771000D03*
X153785000Y-47322000D03*
X144399000Y-67794000D03*
X153751000Y-65381000D03*
X144294000Y-85716000D03*
X153758000Y-83378000D03*
X144255000Y-103854000D03*
X153644000Y-101428000D03*
X149426000Y-120863000D03*
X153396000Y-125947000D03*
X163258000Y-52177000D03*
X172647000Y-49727000D03*
X163183000Y-70121000D03*
X172721000Y-67709000D03*
X163221000Y-88131000D03*
X172722000Y-85719000D03*
X163371000Y-106359000D03*
X172649000Y-103725000D03*
X176897000Y-125256000D03*
X168844000Y-126295000D03*
X189862000Y-46378000D03*
X185043501Y-57108501D03*
X182180000Y-73754000D03*
X173088000Y-71338000D03*
X181587000Y-84911000D03*
X175575000Y-81868000D03*
X182225000Y-109598000D03*
X173244000Y-107377000D03*
X185277000Y-135823000D03*
X193552000Y-134821000D03*
X202553000Y-119262000D03*
X194574000Y-120264000D03*
X219133000Y-128619000D03*
X210857000Y-129658000D03*
X201810000Y-145328000D03*
X210160000Y-144660000D03*
D19*
X197220162Y-89763600D02*
X195555000Y-89763600D01*
X198490162Y-88493600D02*
X197220162Y-89763600D01*
X212101400Y-88493600D02*
X198490162Y-88493600D01*
X213834871Y-141897494D02*
X212330147Y-140392770D01*
X213834871Y-143680450D02*
X213834871Y-141897494D01*
X222904871Y-126126543D02*
X221511651Y-124733323D01*
X222904871Y-127962450D02*
X222904871Y-126126543D01*
X206334871Y-116529372D02*
X205028773Y-115223274D01*
X206334871Y-118400450D02*
X206334871Y-116529372D01*
X213834871Y-143680450D02*
X222904871Y-127962450D01*
X221511651Y-124733323D02*
X205028773Y-115223274D01*
X194467999Y-109120121D02*
X194498439Y-109150561D01*
X195555000Y-89763600D02*
X194467999Y-90850601D01*
X194467999Y-90850601D02*
X194467999Y-109120121D01*
X205028773Y-115223274D02*
X194498439Y-109150561D01*
X95118000Y-67470000D02*
X95097000Y-67449000D01*
X95118000Y-68865000D02*
X95118000Y-67470000D01*
X114127000Y-68856000D02*
X114118000Y-68865000D01*
X114127000Y-67215000D02*
X114127000Y-68856000D01*
X133137000Y-64136000D02*
X133133000Y-64140000D01*
X133137000Y-62595000D02*
X133137000Y-64136000D01*
X152155000Y-61790000D02*
X152150000Y-61795000D01*
X152155000Y-60186000D02*
X152155000Y-61790000D01*
X171125000Y-64170000D02*
X171132000Y-64177000D01*
X171125000Y-62625000D02*
X171125000Y-64170000D01*
X174431000Y-66335000D02*
X174424000Y-66328000D01*
X174431000Y-67785000D02*
X174431000Y-66335000D01*
X198989400Y-82143600D02*
X198878000Y-82255000D01*
X210795000Y-82143600D02*
X198989400Y-82143600D01*
X95096000Y-86843000D02*
X95118000Y-86865000D01*
X95096000Y-85328000D02*
X95096000Y-86843000D01*
X114093000Y-86840000D02*
X114118000Y-86865000D01*
X114093000Y-85215000D02*
X114093000Y-86840000D01*
X133137000Y-82136000D02*
X133133000Y-82140000D01*
X133137000Y-80561000D02*
X133137000Y-82136000D01*
X152125000Y-79770000D02*
X152150000Y-79795000D01*
X152125000Y-78219000D02*
X152125000Y-79770000D01*
X190863000Y-123165695D02*
X191590500Y-122438195D01*
X190863000Y-123789000D02*
X190863000Y-123165695D01*
X171132000Y-80641000D02*
X171126000Y-80635000D01*
X171132000Y-82177000D02*
X171132000Y-80641000D01*
X174239000Y-78332000D02*
X174259000Y-78352000D01*
X174239000Y-76784000D02*
X174239000Y-78332000D01*
X189637000Y-87429000D02*
X189637000Y-88258000D01*
X189637000Y-88258000D02*
X190293000Y-88914000D01*
X210795000Y-84683600D02*
X198903600Y-84683600D01*
X95118000Y-103445000D02*
X95152000Y-103411000D01*
X95118000Y-104865000D02*
X95118000Y-103445000D01*
X114118000Y-103367000D02*
X114130000Y-103355000D01*
X114118000Y-104865000D02*
X114118000Y-103367000D01*
X133137000Y-100136000D02*
X133133000Y-100140000D01*
X133137000Y-98529000D02*
X133137000Y-100136000D01*
X152123000Y-97768000D02*
X152150000Y-97795000D01*
X152123000Y-96233000D02*
X152123000Y-97768000D01*
X208994305Y-132813000D02*
X208228500Y-132047195D01*
X209150000Y-132813000D02*
X208994305Y-132813000D01*
X171127000Y-100172000D02*
X171132000Y-100177000D01*
X171127000Y-98677000D02*
X171127000Y-100172000D01*
X174431000Y-102219000D02*
X174432000Y-102218000D01*
X174431000Y-103785000D02*
X174431000Y-102219000D01*
X201016400Y-87223600D02*
X200974000Y-87266000D01*
X210795000Y-87223600D02*
X201016400Y-87223600D01*
X95152000Y-122831000D02*
X95118000Y-122865000D01*
X95152000Y-121284000D02*
X95152000Y-122831000D01*
X114118000Y-121265000D02*
X114131000Y-121252000D01*
X114118000Y-122865000D02*
X114118000Y-121265000D01*
X133137000Y-118136000D02*
X133133000Y-118140000D01*
X133137000Y-116540000D02*
X133137000Y-118136000D01*
X146167000Y-120856000D02*
X146160000Y-120863000D01*
X147243000Y-120856000D02*
X146167000Y-120856000D01*
X165319000Y-129249695D02*
X165937500Y-128631195D01*
X165319000Y-129858000D02*
X165319000Y-129249695D01*
X182530500Y-138569500D02*
X181937000Y-139163000D01*
X182530500Y-138157195D02*
X182530500Y-138569500D01*
X199122500Y-148238500D02*
X198321000Y-149040000D01*
X199122500Y-147759195D02*
X199122500Y-148238500D01*
X191042939Y-89674061D02*
X189331000Y-91386000D01*
X191042939Y-89648000D02*
X191042939Y-89674061D01*
X186800000Y-121516000D02*
X186749000Y-121516000D01*
X189305000Y-119011000D02*
X186800000Y-121516000D01*
X184084512Y-133957378D02*
X182530500Y-135511390D01*
X182530500Y-135511390D02*
X182530500Y-138157195D01*
X184084512Y-126430488D02*
X184084512Y-133957378D01*
X186749000Y-123766000D02*
X184084512Y-126430488D01*
X198579400Y-89763600D02*
X198571000Y-89772000D01*
X210795000Y-89763600D02*
X198579400Y-89763600D01*
X212101400Y-65633600D02*
X209335600Y-65633600D01*
X197220162Y-69443600D02*
X195555000Y-69443600D01*
X198490162Y-68173600D02*
X197220162Y-69443600D01*
X212101400Y-68173600D02*
X198490162Y-68173600D01*
X213188401Y-69260601D02*
X213188401Y-92820597D01*
X212101400Y-68173600D02*
X213188401Y-69260601D01*
X205000000Y-104816000D02*
X202365000Y-107451000D01*
X205000000Y-101008998D02*
X205000000Y-104816000D01*
X210504499Y-95504499D02*
X206495501Y-95504499D01*
X213188401Y-92820597D02*
X210504499Y-95504499D01*
X205004499Y-96995501D02*
X205004499Y-101004499D01*
X206495501Y-95504499D02*
X205004499Y-96995501D01*
X205004499Y-101004499D02*
X205000000Y-101008998D01*
X199067400Y-70713600D02*
X198980000Y-70801000D01*
X212101400Y-70713600D02*
X199067400Y-70713600D01*
X84445000Y-131875000D02*
X84445000Y-113875000D01*
X84445000Y-95875000D02*
X84445000Y-113875000D01*
X84445000Y-83376002D02*
X84445000Y-77875000D01*
X84445000Y-95875000D02*
X84445000Y-83376002D01*
X84445000Y-59875000D02*
X84445000Y-77875000D01*
X86611000Y-62041000D02*
X87162000Y-62041000D01*
X84445000Y-59875000D02*
X86611000Y-62041000D01*
X86544797Y-79974797D02*
X87274336Y-79974797D01*
X84445000Y-77875000D02*
X86544797Y-79974797D01*
X86544803Y-97974803D02*
X87273920Y-97974803D01*
X84445000Y-95875000D02*
X86544803Y-97974803D01*
X86543170Y-115973170D02*
X87332717Y-115973170D01*
X84445000Y-113875000D02*
X86543170Y-115973170D01*
X86544676Y-133974676D02*
X87281993Y-133974676D01*
X84445000Y-131875000D02*
X86544676Y-133974676D01*
X197220162Y-74523600D02*
X195555000Y-74523600D01*
X198490162Y-73253600D02*
X197220162Y-74523600D01*
X212101400Y-73253600D02*
X198490162Y-73253600D01*
X191767939Y-111156063D02*
X191767939Y-78310661D01*
X170248300Y-119191723D02*
X183732279Y-119191723D01*
X164593999Y-133616001D02*
X164593999Y-124846024D01*
X164593999Y-124846024D02*
X170248300Y-119191723D01*
X164059989Y-134150011D02*
X164593999Y-133616001D01*
X87457328Y-134150011D02*
X164059989Y-134150011D01*
X191767939Y-78310661D02*
X195555000Y-74523600D01*
X183732279Y-119191723D02*
X191767939Y-111156063D01*
X87281993Y-133974676D02*
X87457328Y-134150011D01*
X103445000Y-131875000D02*
X103445000Y-113875000D01*
X103445000Y-113875000D02*
X103445000Y-95875000D01*
X103445000Y-95875000D02*
X103445000Y-77875000D01*
X103445000Y-77875000D02*
X103445000Y-59875000D01*
X197220162Y-77063600D02*
X195555000Y-77063600D01*
X198490162Y-75793600D02*
X197220162Y-77063600D01*
X212101400Y-75793600D02*
X198490162Y-75793600D01*
X105621000Y-116051000D02*
X106264000Y-116051000D01*
X103445000Y-113875000D02*
X105621000Y-116051000D01*
X105544239Y-97974239D02*
X106301624Y-97974239D01*
X103445000Y-95875000D02*
X105544239Y-97974239D01*
X105588000Y-80018000D02*
X106260000Y-80018000D01*
X103445000Y-77875000D02*
X105588000Y-80018000D01*
X105544940Y-61974940D02*
X106261095Y-61974940D01*
X103445000Y-59875000D02*
X105544940Y-61974940D01*
X107153999Y-128208999D02*
X107435000Y-128490000D01*
X105761001Y-128208999D02*
X107153999Y-128208999D01*
X103445000Y-130525000D02*
X105761001Y-128208999D01*
X103445000Y-131875000D02*
X103445000Y-130525000D01*
X192217949Y-80400651D02*
X192217949Y-108358800D01*
X195555000Y-77063600D02*
X192217949Y-80400651D01*
X192217949Y-108358800D02*
X192217949Y-108183000D01*
X192217949Y-111731359D02*
X185426654Y-118522654D01*
X192217949Y-108358800D02*
X192217949Y-111731359D01*
X170353403Y-118450210D02*
X183448487Y-118450210D01*
X164143989Y-124659624D02*
X170353403Y-118450210D01*
X164143989Y-133403011D02*
X164143989Y-124659624D01*
X163846999Y-133700001D02*
X164143989Y-133403011D01*
X103543998Y-131875000D02*
X105368999Y-133700001D01*
X105368999Y-133700001D02*
X163846999Y-133700001D01*
X103445000Y-131875000D02*
X103543998Y-131875000D01*
X122445000Y-127113000D02*
X122445000Y-109113000D01*
X122445000Y-109113000D02*
X122445000Y-91113000D01*
X122445000Y-91113000D02*
X122445000Y-73113000D01*
X122445000Y-73113000D02*
X122445000Y-55113000D01*
X197220162Y-79603600D02*
X195555000Y-79603600D01*
X198490162Y-78333600D02*
X197220162Y-79603600D01*
X212101400Y-78333600D02*
X198490162Y-78333600D01*
X124542616Y-129210616D02*
X125345079Y-129210616D01*
X122445000Y-127113000D02*
X124542616Y-129210616D01*
X124544823Y-111212823D02*
X125272441Y-111212823D01*
X122445000Y-109113000D02*
X124544823Y-111212823D01*
X124544412Y-93212412D02*
X125195208Y-93212412D01*
X122445000Y-91113000D02*
X124544412Y-93212412D01*
X124544858Y-75212858D02*
X125269643Y-75212858D01*
X122445000Y-73113000D02*
X124544858Y-75212858D01*
X124597000Y-57265000D02*
X125230000Y-57265000D01*
X122445000Y-55113000D02*
X124597000Y-57265000D01*
X192667959Y-82490641D02*
X192667959Y-108172400D01*
X195555000Y-79603600D02*
X192667959Y-82490641D01*
X192667959Y-112306655D02*
X187149307Y-117825307D01*
X192667959Y-108172400D02*
X192667959Y-112306655D01*
X170716671Y-117450532D02*
X183423047Y-117450532D01*
X163693979Y-133022611D02*
X163693980Y-124473223D01*
X163466599Y-133249991D02*
X163693979Y-133022611D01*
X125456000Y-133249991D02*
X163466599Y-133249991D01*
X163693980Y-124473223D02*
X170716671Y-117450532D01*
X122445000Y-130238991D02*
X125456000Y-133249991D01*
X122445000Y-127113000D02*
X122445000Y-130238991D01*
X147045000Y-112932000D02*
X147045000Y-112671000D01*
X141445000Y-107071000D02*
X141445000Y-106732000D01*
X141445000Y-106732000D02*
X141445000Y-88732000D01*
X141445000Y-88732000D02*
X141445000Y-70732000D01*
X141445000Y-70732000D02*
X141445000Y-52732000D01*
X149746002Y-112932000D02*
X147045000Y-112932000D01*
X151768001Y-114953999D02*
X149746002Y-112932000D01*
X151768001Y-121591001D02*
X151768001Y-114953999D01*
X150641000Y-122718002D02*
X151768001Y-121591001D01*
X150641000Y-128760000D02*
X150641000Y-122718002D01*
X197220162Y-82143600D02*
X195555000Y-82143600D01*
X198490162Y-80873600D02*
X197220162Y-82143600D01*
X212101400Y-80873600D02*
X198490162Y-80873600D01*
X144133000Y-109781000D02*
X144107000Y-109755000D01*
X144155000Y-109781000D02*
X144133000Y-109781000D01*
X147045000Y-112671000D02*
X144155000Y-109781000D01*
X144155000Y-109781000D02*
X141445000Y-107071000D01*
X143544059Y-90831059D02*
X144182069Y-90831059D01*
X141445000Y-88732000D02*
X143544059Y-90831059D01*
X143591000Y-72878000D02*
X144287000Y-72878000D01*
X141445000Y-70732000D02*
X143591000Y-72878000D01*
X143642000Y-54929000D02*
X144211000Y-54929000D01*
X141445000Y-52732000D02*
X143642000Y-54929000D01*
X152764000Y-130883000D02*
X150641000Y-128760000D01*
X153619000Y-130883000D02*
X152764000Y-130883000D01*
X195555000Y-82143600D02*
X193117969Y-84580631D01*
X193117969Y-84580631D02*
X193117969Y-88387811D01*
X193117969Y-88387811D02*
X193117969Y-107986000D01*
X186113616Y-119934000D02*
X179795000Y-119934000D01*
X193117969Y-112929647D02*
X186113616Y-119934000D01*
X193117969Y-107986000D02*
X193117969Y-112929647D01*
X172963999Y-114904999D02*
X174144000Y-116085000D01*
X164513999Y-114904999D02*
X172963999Y-114904999D01*
X163044999Y-116373999D02*
X164513999Y-114904999D01*
X163044999Y-127341003D02*
X163044999Y-116373999D01*
X159503002Y-130883000D02*
X163044999Y-127341003D01*
X153619000Y-130883000D02*
X159503002Y-130883000D01*
X162270001Y-110938001D02*
X160445000Y-109113000D01*
X160445000Y-91113000D02*
X160445000Y-73113000D01*
X160445000Y-73113000D02*
X160445000Y-55113000D01*
X197220162Y-84683600D02*
X195555000Y-84683600D01*
X198490162Y-83413600D02*
X197220162Y-84683600D01*
X212101400Y-83413600D02*
X198490162Y-83413600D01*
X180679871Y-122850319D02*
X177746276Y-119916724D01*
X165991999Y-110938001D02*
X162270001Y-110938001D01*
X162621000Y-93289000D02*
X163332000Y-93289000D01*
X160445000Y-91113000D02*
X162621000Y-93289000D01*
X162544380Y-75212380D02*
X163296079Y-75212380D01*
X160445000Y-73113000D02*
X162544380Y-75212380D01*
X162544959Y-57212959D02*
X163258401Y-57212959D01*
X160445000Y-55113000D02*
X162544959Y-57212959D01*
X160445000Y-94691000D02*
X160445000Y-91113000D01*
X160445000Y-109113000D02*
X160445000Y-94691000D01*
X189019719Y-122789174D02*
X188900022Y-122908871D01*
X193725871Y-109743985D02*
X195868366Y-110979534D01*
X193567980Y-109586093D02*
X193725871Y-109743985D01*
X195868366Y-110979534D02*
X189019719Y-122789174D01*
X195555000Y-84683600D02*
X193567979Y-86670621D01*
X193567979Y-86670621D02*
X193567980Y-109586093D01*
X180679871Y-122908871D02*
X180679871Y-122850319D01*
X188900022Y-122908871D02*
X180679871Y-122908871D01*
X180679871Y-124526450D02*
X180679871Y-122908871D01*
X197264871Y-134111450D02*
X197264871Y-132435319D01*
X185045000Y-82796998D02*
X185045000Y-82694000D01*
X179445000Y-112494000D02*
X179445000Y-88396998D01*
X185045000Y-82694000D02*
X185045000Y-82094000D01*
X199760162Y-87223600D02*
X195555000Y-87223600D01*
X201030162Y-85953600D02*
X199760162Y-87223600D01*
X212101400Y-85953600D02*
X201030162Y-85953600D01*
X197264871Y-132435319D02*
X194281776Y-129452224D01*
X181634000Y-114683000D02*
X182299000Y-114683000D01*
X179445000Y-112494000D02*
X181634000Y-114683000D01*
X182535500Y-79584500D02*
X179445000Y-76494000D01*
X185045000Y-82094000D02*
X182535500Y-79584500D01*
X182249000Y-49490000D02*
X185045000Y-46694000D01*
X179445000Y-52294000D02*
X182249000Y-49490000D01*
X179445000Y-111304998D02*
X179445000Y-112494000D01*
X194095058Y-109383590D02*
X194112155Y-109447273D01*
X194017989Y-109306521D02*
X194095058Y-109383590D01*
X194017989Y-88760611D02*
X194017989Y-109306521D01*
X195555000Y-87223600D02*
X194017989Y-88760611D01*
X194112155Y-109447273D02*
X196483954Y-110815060D01*
X196483954Y-110815060D02*
X188270000Y-124979000D01*
X188270000Y-124979000D02*
X188270000Y-123789001D01*
X188270000Y-125477000D02*
X188270000Y-124979000D01*
X181581499Y-86260499D02*
X185045000Y-82796998D01*
X179445000Y-88396998D02*
X181581499Y-86260499D01*
X179445000Y-76494000D02*
X179445000Y-71953000D01*
X179445000Y-71953000D02*
X179445000Y-52294000D01*
X206051398Y-92303600D02*
X195555000Y-92303600D01*
X207321398Y-91033600D02*
X206051398Y-92303600D01*
X212101400Y-91033600D02*
X207321398Y-91033600D01*
X198953600Y-77063600D02*
X198878000Y-76988000D01*
X210795000Y-77063600D02*
X198953600Y-77063600D01*
X198969600Y-74523600D02*
X198929000Y-74483000D01*
X210795000Y-74523600D02*
X198969600Y-74523600D01*
X199070600Y-66903600D02*
X199031000Y-66864000D01*
X210795000Y-66903600D02*
X199070600Y-66903600D01*
X199036600Y-64363600D02*
X199031000Y-64358000D01*
X210795000Y-64363600D02*
X199036600Y-64363600D01*
X197151400Y-64363600D02*
X195555000Y-64363600D01*
X198421400Y-63093600D02*
X197151400Y-64363600D01*
X212101400Y-63093600D02*
X198421400Y-63093600D01*
X210075001Y-107152999D02*
X210075001Y-102175001D01*
X210075001Y-102175001D02*
X209000000Y-101100000D01*
X209141000Y-108087000D02*
X210075001Y-107152999D01*
X205864600Y-91033600D02*
X205883000Y-91052000D01*
X196881400Y-91033600D02*
X205864600Y-91033600D01*
X95097000Y-50844000D02*
X95118000Y-50865000D01*
X95097000Y-49361000D02*
X95097000Y-50844000D01*
X114127000Y-50856000D02*
X114118000Y-50865000D01*
X114127000Y-49289000D02*
X114127000Y-50856000D01*
X133135000Y-46138000D02*
X133133000Y-46140000D01*
X133135000Y-44536000D02*
X133135000Y-46138000D01*
X152152000Y-43793000D02*
X152150000Y-43795000D01*
X152152000Y-42089000D02*
X152152000Y-43793000D01*
X171125000Y-46170000D02*
X171132000Y-46177000D01*
X171125000Y-44738000D02*
X171125000Y-46170000D01*
X180511000Y-56993000D02*
X180510000Y-56992000D01*
X180511000Y-58331000D02*
X180511000Y-56993000D01*
X198936600Y-79603600D02*
X198878000Y-79545000D01*
X210795000Y-79603600D02*
X198936600Y-79603600D01*
X95145000Y-54442000D02*
X95118000Y-54415000D01*
X95145000Y-57675000D02*
X95145000Y-54442000D01*
X93319999Y-59500001D02*
X95145000Y-57675000D01*
X89836001Y-59500001D02*
X93319999Y-59500001D01*
X87325000Y-56989000D02*
X89836001Y-59500001D01*
X95120000Y-54413000D02*
X95118000Y-54415000D01*
X96726000Y-54413000D02*
X95120000Y-54413000D01*
X95145000Y-72442000D02*
X95118000Y-72415000D01*
X95145000Y-75675000D02*
X95145000Y-72442000D01*
X93319999Y-77500001D02*
X95145000Y-75675000D01*
X89737001Y-77500001D02*
X93319999Y-77500001D01*
X87279000Y-75042000D02*
X89737001Y-77500001D01*
X96643000Y-72415000D02*
X96671000Y-72387000D01*
X95118000Y-72415000D02*
X96643000Y-72415000D01*
X95145000Y-90442000D02*
X95118000Y-90415000D01*
X95145000Y-93675000D02*
X95145000Y-90442000D01*
X93319999Y-95500001D02*
X95145000Y-93675000D01*
X89643001Y-95500001D02*
X93319999Y-95500001D01*
X87278000Y-93135000D02*
X89643001Y-95500001D01*
X96652000Y-90415000D02*
X96671000Y-90434000D01*
X95118000Y-90415000D02*
X96652000Y-90415000D01*
X95145000Y-108442000D02*
X95118000Y-108415000D01*
X95145000Y-111675000D02*
X95145000Y-108442000D01*
X89567001Y-113500001D02*
X93319999Y-113500001D01*
X93319999Y-113500001D02*
X95145000Y-111675000D01*
X87278000Y-111211000D02*
X89567001Y-113500001D01*
X95166000Y-108463000D02*
X95118000Y-108415000D01*
X96727000Y-108463000D02*
X95166000Y-108463000D01*
X95145000Y-126442000D02*
X95118000Y-126415000D01*
X95145000Y-129675000D02*
X95145000Y-126442000D01*
X93319999Y-131500001D02*
X95145000Y-129675000D01*
X89701001Y-131500001D02*
X93319999Y-131500001D01*
X87224000Y-129023000D02*
X89701001Y-131500001D01*
X96757000Y-126415000D02*
X96782000Y-126390000D01*
X95118000Y-126415000D02*
X96757000Y-126415000D01*
X112319999Y-59500001D02*
X114145000Y-57675000D01*
X108752001Y-59500001D02*
X112319999Y-59500001D01*
X106260000Y-57008000D02*
X108752001Y-59500001D01*
X114145000Y-54442000D02*
X114118000Y-54415000D01*
X114145000Y-57675000D02*
X114145000Y-54442000D01*
X115755000Y-54415000D02*
X115760000Y-54410000D01*
X114118000Y-54415000D02*
X115755000Y-54415000D01*
X112319999Y-77500001D02*
X114145000Y-75675000D01*
X108900001Y-77500001D02*
X112319999Y-77500001D01*
X106260000Y-74860000D02*
X108900001Y-77500001D01*
X114145000Y-72442000D02*
X114118000Y-72415000D01*
X114145000Y-75675000D02*
X114145000Y-72442000D01*
X115755000Y-72415000D02*
X115760000Y-72410000D01*
X114118000Y-72415000D02*
X115755000Y-72415000D01*
X112319999Y-95500001D02*
X114145000Y-93675000D01*
X108785001Y-95500001D02*
X112319999Y-95500001D01*
X106226000Y-92941000D02*
X108785001Y-95500001D01*
X114145000Y-90442000D02*
X114118000Y-90415000D01*
X114145000Y-93675000D02*
X114145000Y-90442000D01*
X115721000Y-90415000D02*
X115726000Y-90410000D01*
X114118000Y-90415000D02*
X115721000Y-90415000D01*
X112319999Y-113500001D02*
X114145000Y-111675000D01*
X108796001Y-113500001D02*
X112319999Y-113500001D01*
X106226000Y-110930000D02*
X108796001Y-113500001D01*
X114145000Y-108442000D02*
X114118000Y-108415000D01*
X114145000Y-111675000D02*
X114145000Y-108442000D01*
X114142000Y-108439000D02*
X114118000Y-108415000D01*
X115688000Y-108439000D02*
X114142000Y-108439000D01*
X108792001Y-131500001D02*
X112319999Y-131500001D01*
X112319999Y-131500001D02*
X114145000Y-129675000D01*
X106226000Y-128934000D02*
X108792001Y-131500001D01*
X114123000Y-126410000D02*
X114118000Y-126415000D01*
X115653000Y-126410000D02*
X114123000Y-126410000D01*
X114145000Y-126442000D02*
X114118000Y-126415000D01*
X114145000Y-129675000D02*
X114145000Y-126442000D01*
X131319999Y-54738001D02*
X133145000Y-52913000D01*
X128010001Y-54738001D02*
X131319999Y-54738001D01*
X125379000Y-52107000D02*
X128010001Y-54738001D01*
X133145000Y-49702000D02*
X133133000Y-49690000D01*
X133145000Y-52913000D02*
X133145000Y-49702000D01*
X134726000Y-49690000D02*
X134731000Y-49695000D01*
X133133000Y-49690000D02*
X134726000Y-49690000D01*
X131319999Y-72738001D02*
X133145000Y-70913000D01*
X127821001Y-72738001D02*
X131319999Y-72738001D01*
X125306000Y-70223000D02*
X127821001Y-72738001D01*
X133145000Y-67702000D02*
X133133000Y-67690000D01*
X133145000Y-70913000D02*
X133145000Y-67702000D01*
X134684000Y-67690000D02*
X134695000Y-67679000D01*
X133133000Y-67690000D02*
X134684000Y-67690000D01*
X131319999Y-90738001D02*
X133145000Y-88913000D01*
X127691001Y-90738001D02*
X131319999Y-90738001D01*
X125270000Y-88317000D02*
X127691001Y-90738001D01*
X133145000Y-85702000D02*
X133133000Y-85690000D01*
X133145000Y-88913000D02*
X133145000Y-85702000D01*
X134667000Y-85690000D02*
X134696000Y-85719000D01*
X133133000Y-85690000D02*
X134667000Y-85690000D01*
X131319999Y-108738001D02*
X133145000Y-106913000D01*
X127918001Y-108738001D02*
X131319999Y-108738001D01*
X125233000Y-106053000D02*
X127918001Y-108738001D01*
X133145000Y-103702000D02*
X133133000Y-103690000D01*
X133145000Y-106913000D02*
X133145000Y-103702000D01*
X134731000Y-103690000D02*
X134733000Y-103688000D01*
X133133000Y-103690000D02*
X134731000Y-103690000D01*
X131319999Y-126738001D02*
X133145000Y-124913000D01*
X127830001Y-126738001D02*
X131319999Y-126738001D01*
X125270000Y-124178000D02*
X127830001Y-126738001D01*
X133145000Y-121702000D02*
X133133000Y-121690000D01*
X133145000Y-124913000D02*
X133145000Y-121702000D01*
X134725000Y-121690000D02*
X134733000Y-121698000D01*
X133133000Y-121690000D02*
X134725000Y-121690000D01*
X150319999Y-52357001D02*
X152145000Y-50532000D01*
X146982001Y-52357001D02*
X150319999Y-52357001D01*
X144396000Y-49771000D02*
X146982001Y-52357001D01*
X152145000Y-47350000D02*
X152150000Y-47345000D01*
X152145000Y-50532000D02*
X152145000Y-47350000D01*
X153762000Y-47345000D02*
X153785000Y-47322000D01*
X152150000Y-47345000D02*
X153762000Y-47345000D01*
X150319999Y-70357001D02*
X152145000Y-68532000D01*
X146962001Y-70357001D02*
X150319999Y-70357001D01*
X144399000Y-67794000D02*
X146962001Y-70357001D01*
X152145000Y-65350000D02*
X152150000Y-65345000D01*
X152145000Y-68532000D02*
X152145000Y-65350000D01*
X153715000Y-65345000D02*
X153751000Y-65381000D01*
X152150000Y-65345000D02*
X153715000Y-65345000D01*
X146935001Y-88357001D02*
X150319999Y-88357001D01*
X150319999Y-88357001D02*
X152145000Y-86532000D01*
X144294000Y-85716000D02*
X146935001Y-88357001D01*
X152145000Y-83350000D02*
X152150000Y-83345000D01*
X152145000Y-86532000D02*
X152145000Y-83350000D01*
X153725000Y-83345000D02*
X153758000Y-83378000D01*
X152150000Y-83345000D02*
X153725000Y-83345000D01*
X150319999Y-106357001D02*
X152145000Y-104532000D01*
X146758001Y-106357001D02*
X150319999Y-106357001D01*
X144255000Y-103854000D02*
X146758001Y-106357001D01*
X152145000Y-101350000D02*
X152150000Y-101345000D01*
X152145000Y-104532000D02*
X152145000Y-101350000D01*
X153561000Y-101345000D02*
X153644000Y-101428000D01*
X152150000Y-101345000D02*
X153561000Y-101345000D01*
X149433000Y-120856000D02*
X149426000Y-120863000D01*
X150793000Y-120856000D02*
X149433000Y-120856000D01*
X155834001Y-128385001D02*
X153396000Y-125947000D01*
X159515999Y-128385001D02*
X155834001Y-128385001D01*
X161341000Y-126560000D02*
X159515999Y-128385001D01*
X149202998Y-120863000D02*
X149426000Y-120863000D01*
X145146997Y-116806999D02*
X149202998Y-120863000D01*
X143010998Y-117069000D02*
X143272999Y-116806999D01*
X136932000Y-117069000D02*
X143010998Y-117069000D01*
X136345000Y-116482000D02*
X136932000Y-117069000D01*
X143272999Y-116806999D02*
X145146997Y-116806999D01*
X136345000Y-115132000D02*
X136345000Y-116482000D01*
X169319999Y-54738001D02*
X171145000Y-52913000D01*
X165819001Y-54738001D02*
X169319999Y-54738001D01*
X163258000Y-52177000D02*
X165819001Y-54738001D01*
X171145000Y-49740000D02*
X171132000Y-49727000D01*
X171145000Y-52913000D02*
X171145000Y-49740000D01*
X171132000Y-49727000D02*
X172647000Y-49727000D01*
X169319999Y-72738001D02*
X171145000Y-70913000D01*
X165800001Y-72738001D02*
X169319999Y-72738001D01*
X163183000Y-70121000D02*
X165800001Y-72738001D01*
X171145000Y-67740000D02*
X171132000Y-67727000D01*
X171145000Y-70913000D02*
X171145000Y-67740000D01*
X172703000Y-67727000D02*
X172721000Y-67709000D01*
X171132000Y-67727000D02*
X172703000Y-67727000D01*
X169319999Y-90738001D02*
X171145000Y-88913000D01*
X165828001Y-90738001D02*
X169319999Y-90738001D01*
X163221000Y-88131000D02*
X165828001Y-90738001D01*
X171145000Y-85740000D02*
X171132000Y-85727000D01*
X171145000Y-88913000D02*
X171145000Y-85740000D01*
X172714000Y-85727000D02*
X172722000Y-85719000D01*
X171132000Y-85727000D02*
X172714000Y-85727000D01*
X169319999Y-108738001D02*
X171145000Y-106913000D01*
X165750001Y-108738001D02*
X169319999Y-108738001D01*
X163371000Y-106359000D02*
X165750001Y-108738001D01*
X171145000Y-103740000D02*
X171132000Y-103727000D01*
X171145000Y-106913000D02*
X171145000Y-103740000D01*
X172647000Y-103727000D02*
X172649000Y-103725000D01*
X171132000Y-103727000D02*
X172647000Y-103727000D01*
X170313399Y-122721234D02*
X172848165Y-125256000D01*
X172848165Y-125256000D02*
X176897000Y-125256000D01*
X170313399Y-121081706D02*
X170313399Y-122721234D01*
X170313399Y-122955906D02*
X167712500Y-125556805D01*
X170313399Y-121081706D02*
X170313399Y-122955906D01*
X168105805Y-125556805D02*
X168844000Y-126295000D01*
X167712500Y-125556805D02*
X168105805Y-125556805D01*
X188352999Y-44868999D02*
X189862000Y-46378000D01*
X178370001Y-44868999D02*
X188352999Y-44868999D01*
X174345000Y-48894000D02*
X178370001Y-44868999D01*
X184061000Y-58091002D02*
X185043501Y-57108501D01*
X184061000Y-58331000D02*
X184061000Y-58091002D01*
X188319999Y-76119001D02*
X190145000Y-74294000D01*
X184545001Y-76119001D02*
X188319999Y-76119001D01*
X182180000Y-73754000D02*
X184545001Y-76119001D01*
X174428000Y-71338000D02*
X174431000Y-71335000D01*
X173088000Y-71338000D02*
X174428000Y-71338000D01*
X179778999Y-86719001D02*
X181587000Y-84911000D01*
X176170001Y-86719001D02*
X179778999Y-86719001D01*
X174345000Y-84894000D02*
X176170001Y-86719001D01*
X174345000Y-81988000D02*
X174259000Y-81902000D01*
X174345000Y-84894000D02*
X174345000Y-81988000D01*
X175541000Y-81902000D02*
X175575000Y-81868000D01*
X174259000Y-81902000D02*
X175541000Y-81902000D01*
X188319999Y-112119001D02*
X190145000Y-110294000D01*
X184746001Y-112119001D02*
X188319999Y-112119001D01*
X182225000Y-109598000D02*
X184746001Y-112119001D01*
X174389000Y-107377000D02*
X174431000Y-107335000D01*
X173244000Y-107377000D02*
X174389000Y-107377000D01*
X185045695Y-135823000D02*
X184305500Y-135082805D01*
X185277000Y-135823000D02*
X185045695Y-135823000D01*
X186898399Y-132489906D02*
X184305500Y-135082805D01*
X186898399Y-130666706D02*
X186898399Y-132489906D01*
X186898399Y-132306234D02*
X189413165Y-134821000D01*
X189413165Y-134821000D02*
X193552000Y-134821000D01*
X186898399Y-130666706D02*
X186898399Y-132306234D01*
X197911862Y-119262000D02*
X202553000Y-119262000D01*
X195968399Y-117318537D02*
X197911862Y-119262000D01*
X195968399Y-114955706D02*
X195968399Y-117318537D01*
X195968399Y-116760906D02*
X193365500Y-119363805D01*
X195968399Y-114955706D02*
X195968399Y-116760906D01*
X193673805Y-119363805D02*
X194574000Y-120264000D01*
X193365500Y-119363805D02*
X193673805Y-119363805D01*
X212538399Y-126157234D02*
X215000165Y-128619000D01*
X215000165Y-128619000D02*
X219133000Y-128619000D01*
X212538399Y-124517706D02*
X212538399Y-126157234D01*
X212538399Y-126437906D02*
X210003500Y-128972805D01*
X212538399Y-124517706D02*
X212538399Y-126437906D01*
X210171805Y-128972805D02*
X210857000Y-129658000D01*
X210003500Y-128972805D02*
X210171805Y-128972805D01*
X201540695Y-145328000D02*
X200897500Y-144684805D01*
X201810000Y-145328000D02*
X201540695Y-145328000D01*
X206253165Y-144660000D02*
X203468399Y-141875234D01*
X203468399Y-141875234D02*
X203468399Y-140235706D01*
X210160000Y-144660000D02*
X206253165Y-144660000D01*
X203468399Y-142113906D02*
X200897500Y-144684805D01*
X203468399Y-140235706D02*
X203468399Y-142113906D01*
D20*
X209451686Y-91896110D02*
X209398000Y-92166008D01*
X209398000Y-92441192D01*
X209451686Y-92711090D01*
X209556995Y-92965327D01*
X209709880Y-93194135D01*
X209904465Y-93388720D01*
X210133273Y-93541605D01*
X210387510Y-93646914D01*
X210657408Y-93700600D01*
X210932592Y-93700600D01*
X211202490Y-93646914D01*
X211347240Y-93586956D01*
X210189698Y-94744499D01*
X206532823Y-94744499D01*
X206495500Y-94740823D01*
X206458177Y-94744499D01*
X206458168Y-94744499D01*
X206346515Y-94755496D01*
X206203254Y-94798953D01*
X206071225Y-94869525D01*
X205955500Y-94964498D01*
X205931702Y-94993496D01*
X204493502Y-96431697D01*
X204464498Y-96455500D01*
X204411324Y-96520293D01*
X204369525Y-96571225D01*
X204337656Y-96630848D01*
X204298953Y-96703255D01*
X204255496Y-96846516D01*
X204244499Y-96958169D01*
X204244499Y-96958179D01*
X204240823Y-96995501D01*
X204244499Y-97032824D01*
X204244500Y-100925978D01*
X204240000Y-100971666D01*
X204240000Y-100971676D01*
X204236324Y-101008998D01*
X204240000Y-101046321D01*
X204240001Y-104501197D01*
X202856376Y-105884823D01*
X202841912Y-105878832D01*
X202526033Y-105816000D01*
X202203967Y-105816000D01*
X201888088Y-105878832D01*
X201590537Y-106002082D01*
X201322748Y-106181013D01*
X201095013Y-106408748D01*
X200916082Y-106676537D01*
X200792832Y-106974088D01*
X200730000Y-107289967D01*
X200730000Y-107612033D01*
X200792832Y-107927912D01*
X200916082Y-108225463D01*
X201095013Y-108493252D01*
X201322748Y-108720987D01*
X201590537Y-108899918D01*
X201888088Y-109023168D01*
X202203967Y-109086000D01*
X202526033Y-109086000D01*
X202841912Y-109023168D01*
X203139463Y-108899918D01*
X203407252Y-108720987D01*
X203634987Y-108493252D01*
X203813918Y-108225463D01*
X203937168Y-107927912D01*
X204000000Y-107612033D01*
X204000000Y-107337000D01*
X207502928Y-107337000D01*
X207502928Y-108837000D01*
X207519992Y-109010254D01*
X207570528Y-109176850D01*
X207652595Y-109330386D01*
X207763038Y-109464962D01*
X207897614Y-109575405D01*
X208051150Y-109657472D01*
X208217746Y-109708008D01*
X208391000Y-109725072D01*
X209891000Y-109725072D01*
X210064254Y-109708008D01*
X210230850Y-109657472D01*
X210384386Y-109575405D01*
X210518962Y-109464962D01*
X210629405Y-109330386D01*
X210711472Y-109176850D01*
X210762008Y-109010254D01*
X210779072Y-108837000D01*
X210779072Y-107448006D01*
X210780547Y-107445246D01*
X210787175Y-107423397D01*
X210824004Y-107301985D01*
X210835001Y-107190332D01*
X210835001Y-107190322D01*
X210838677Y-107152999D01*
X210835001Y-107115676D01*
X210835001Y-102212323D01*
X210838677Y-102175001D01*
X210835001Y-102137678D01*
X210835001Y-102137668D01*
X210824004Y-102026015D01*
X210780547Y-101882754D01*
X210742217Y-101811044D01*
X210709975Y-101750724D01*
X210638800Y-101663998D01*
X210615002Y-101635000D01*
X210586004Y-101611202D01*
X210356167Y-101381365D01*
X210385000Y-101236411D01*
X210385000Y-100963589D01*
X210331775Y-100696011D01*
X210227371Y-100443957D01*
X210075799Y-100217114D01*
X209882886Y-100024201D01*
X209656043Y-99872629D01*
X209601412Y-99850000D01*
X209656043Y-99827371D01*
X209882886Y-99675799D01*
X210075799Y-99482886D01*
X210227371Y-99256043D01*
X210331775Y-99003989D01*
X210385000Y-98736411D01*
X210385000Y-98463589D01*
X210331775Y-98196011D01*
X210227371Y-97943957D01*
X210075799Y-97717114D01*
X209882886Y-97524201D01*
X209656043Y-97372629D01*
X209403989Y-97268225D01*
X209136411Y-97215000D01*
X208863589Y-97215000D01*
X208596011Y-97268225D01*
X208343957Y-97372629D01*
X208117114Y-97524201D01*
X207924201Y-97717114D01*
X207772629Y-97943957D01*
X207668225Y-98196011D01*
X207615000Y-98463589D01*
X207615000Y-98736411D01*
X207668225Y-99003989D01*
X207772629Y-99256043D01*
X207924201Y-99482886D01*
X208117114Y-99675799D01*
X208343957Y-99827371D01*
X208398588Y-99850000D01*
X208343957Y-99872629D01*
X208117114Y-100024201D01*
X207924201Y-100217114D01*
X207772629Y-100443957D01*
X207668225Y-100696011D01*
X207615000Y-100963589D01*
X207615000Y-101236411D01*
X207668225Y-101503989D01*
X207772629Y-101756043D01*
X207924201Y-101982886D01*
X208117114Y-102175799D01*
X208343957Y-102327371D01*
X208398588Y-102350000D01*
X208343957Y-102372629D01*
X208117114Y-102524201D01*
X207924201Y-102717114D01*
X207772629Y-102943957D01*
X207668225Y-103196011D01*
X207615000Y-103463589D01*
X207615000Y-103736411D01*
X207668225Y-104003989D01*
X207772629Y-104256043D01*
X207924201Y-104482886D01*
X208117114Y-104675799D01*
X208343957Y-104827371D01*
X208596011Y-104931775D01*
X208863589Y-104985000D01*
X209136411Y-104985000D01*
X209315001Y-104949476D01*
X209315001Y-106448928D01*
X208391000Y-106448928D01*
X208217746Y-106465992D01*
X208051150Y-106516528D01*
X207897614Y-106598595D01*
X207763038Y-106709038D01*
X207652595Y-106843614D01*
X207570528Y-106997150D01*
X207519992Y-107163746D01*
X207502928Y-107337000D01*
X204000000Y-107337000D01*
X204000000Y-107289967D01*
X203937168Y-106974088D01*
X203931177Y-106959624D01*
X205511003Y-105379799D01*
X205540001Y-105356001D01*
X205634974Y-105240276D01*
X205705546Y-105108247D01*
X205749003Y-104964986D01*
X205760000Y-104853333D01*
X205760000Y-104853325D01*
X205763676Y-104816000D01*
X205760000Y-104778675D01*
X205760000Y-101087511D01*
X205764499Y-101041832D01*
X205768176Y-101004499D01*
X205764499Y-100967166D01*
X205764499Y-97310302D01*
X206810303Y-96264499D01*
X210467177Y-96264499D01*
X210504499Y-96268175D01*
X210541821Y-96264499D01*
X210541832Y-96264499D01*
X210653485Y-96253502D01*
X210796746Y-96210045D01*
X210928775Y-96139473D01*
X211044500Y-96044500D01*
X211068303Y-96015496D01*
X213000001Y-94083799D01*
X213000001Y-118944970D01*
X206023282Y-114919645D01*
X205945978Y-114733018D01*
X205832710Y-114563500D01*
X205688547Y-114419337D01*
X205519029Y-114306069D01*
X205330671Y-114228048D01*
X205130712Y-114188274D01*
X204926834Y-114188274D01*
X204799329Y-114213636D01*
X203947529Y-113722413D01*
X208185192Y-113722413D01*
X208280956Y-113986814D01*
X208570571Y-114127704D01*
X208882108Y-114209384D01*
X209203595Y-114228718D01*
X209522675Y-114184961D01*
X209827088Y-114079795D01*
X210001044Y-113986814D01*
X210096808Y-113722413D01*
X209141000Y-112766605D01*
X208185192Y-113722413D01*
X203947529Y-113722413D01*
X202087218Y-112649595D01*
X207499282Y-112649595D01*
X207543039Y-112968675D01*
X207648205Y-113273088D01*
X207741186Y-113447044D01*
X208005587Y-113542808D01*
X208961395Y-112587000D01*
X209320605Y-112587000D01*
X210276413Y-113542808D01*
X210540814Y-113447044D01*
X210681704Y-113157429D01*
X210763384Y-112845892D01*
X210782718Y-112524405D01*
X210738961Y-112205325D01*
X210633795Y-111900912D01*
X210540814Y-111726956D01*
X210276413Y-111631192D01*
X209320605Y-112587000D01*
X208961395Y-112587000D01*
X208005587Y-111631192D01*
X207741186Y-111726956D01*
X207600296Y-112016571D01*
X207518616Y-112328108D01*
X207499282Y-112649595D01*
X202087218Y-112649595D01*
X200009823Y-111451587D01*
X208185192Y-111451587D01*
X209141000Y-112407395D01*
X210096808Y-111451587D01*
X210001044Y-111187186D01*
X209711429Y-111046296D01*
X209399892Y-110964616D01*
X209078405Y-110945282D01*
X208759325Y-110989039D01*
X208454912Y-111094205D01*
X208280956Y-111187186D01*
X208185192Y-111451587D01*
X200009823Y-111451587D01*
X195227999Y-108693969D01*
X195227999Y-102086413D01*
X201409192Y-102086413D01*
X201504956Y-102350814D01*
X201794571Y-102491704D01*
X202106108Y-102573384D01*
X202427595Y-102592718D01*
X202746675Y-102548961D01*
X203051088Y-102443795D01*
X203225044Y-102350814D01*
X203320808Y-102086413D01*
X202365000Y-101130605D01*
X201409192Y-102086413D01*
X195227999Y-102086413D01*
X195227999Y-101013595D01*
X200723282Y-101013595D01*
X200767039Y-101332675D01*
X200872205Y-101637088D01*
X200965186Y-101811044D01*
X201229587Y-101906808D01*
X202185395Y-100951000D01*
X202544605Y-100951000D01*
X203500413Y-101906808D01*
X203764814Y-101811044D01*
X203905704Y-101521429D01*
X203987384Y-101209892D01*
X204006718Y-100888405D01*
X203962961Y-100569325D01*
X203857795Y-100264912D01*
X203764814Y-100090956D01*
X203500413Y-99995192D01*
X202544605Y-100951000D01*
X202185395Y-100951000D01*
X201229587Y-99995192D01*
X200965186Y-100090956D01*
X200824296Y-100380571D01*
X200742616Y-100692108D01*
X200723282Y-101013595D01*
X195227999Y-101013595D01*
X195227999Y-99815587D01*
X201409192Y-99815587D01*
X202365000Y-100771395D01*
X203320808Y-99815587D01*
X203225044Y-99551186D01*
X202935429Y-99410296D01*
X202623892Y-99328616D01*
X202302405Y-99309282D01*
X201983325Y-99353039D01*
X201678912Y-99458205D01*
X201504956Y-99551186D01*
X201409192Y-99815587D01*
X195227999Y-99815587D01*
X195227999Y-97285040D01*
X195232494Y-97285483D01*
X195236451Y-97285899D01*
X195294721Y-97291612D01*
X195294723Y-97291612D01*
X195329123Y-97295000D01*
X198798877Y-97295000D01*
X198828737Y-97292059D01*
X198830442Y-97292071D01*
X198840308Y-97291104D01*
X198868197Y-97288173D01*
X198903184Y-97284727D01*
X198910290Y-97282572D01*
X198961555Y-97272048D01*
X199024787Y-97259986D01*
X199034277Y-97257120D01*
X199090210Y-97239806D01*
X199149494Y-97214885D01*
X199209199Y-97190762D01*
X199217952Y-97186107D01*
X199269455Y-97158259D01*
X199322775Y-97122293D01*
X199376649Y-97087039D01*
X199384331Y-97080774D01*
X199429444Y-97043453D01*
X199474765Y-96997813D01*
X199520765Y-96952767D01*
X199527083Y-96945129D01*
X199564089Y-96899755D01*
X199599689Y-96846172D01*
X199636050Y-96793069D01*
X199640765Y-96784349D01*
X199668253Y-96732653D01*
X199692761Y-96673194D01*
X199718129Y-96614006D01*
X199721060Y-96604536D01*
X199737983Y-96548485D01*
X199750481Y-96485369D01*
X199762920Y-96426844D01*
X199763727Y-96424184D01*
X199764483Y-96416506D01*
X199764899Y-96412549D01*
X199770612Y-96354279D01*
X199770612Y-96354277D01*
X199774000Y-96319877D01*
X199774000Y-95362123D01*
X199771059Y-95332263D01*
X199771071Y-95330558D01*
X199770104Y-95320692D01*
X199767173Y-95292803D01*
X199763727Y-95257816D01*
X199761572Y-95250710D01*
X199751048Y-95199445D01*
X199738986Y-95136213D01*
X199736120Y-95126723D01*
X199718806Y-95070791D01*
X199693884Y-95011503D01*
X199669762Y-94951801D01*
X199665107Y-94943048D01*
X199637259Y-94891545D01*
X199601278Y-94838202D01*
X199566039Y-94784351D01*
X199559777Y-94776674D01*
X199559773Y-94776668D01*
X199559768Y-94776663D01*
X199522453Y-94731556D01*
X199476797Y-94686218D01*
X199431767Y-94640235D01*
X199424129Y-94633917D01*
X199378756Y-94596912D01*
X199325180Y-94561317D01*
X199272069Y-94524950D01*
X199263349Y-94520235D01*
X199211653Y-94492747D01*
X199152183Y-94468234D01*
X199093006Y-94442871D01*
X199083536Y-94439940D01*
X199027485Y-94423017D01*
X198964361Y-94410518D01*
X198905846Y-94398080D01*
X198903184Y-94397273D01*
X198895490Y-94396515D01*
X198891548Y-94396101D01*
X198833279Y-94390388D01*
X198833277Y-94390388D01*
X198798877Y-94387000D01*
X195329123Y-94387000D01*
X195299263Y-94389941D01*
X195297558Y-94389929D01*
X195287692Y-94390896D01*
X195259803Y-94393827D01*
X195227999Y-94396960D01*
X195227999Y-93662924D01*
X195417408Y-93700600D01*
X195692592Y-93700600D01*
X195962490Y-93646914D01*
X196216727Y-93541605D01*
X196445535Y-93388720D01*
X196640120Y-93194135D01*
X196727341Y-93063600D01*
X206014076Y-93063600D01*
X206051398Y-93067276D01*
X206088720Y-93063600D01*
X206088731Y-93063600D01*
X206200384Y-93052603D01*
X206343645Y-93009146D01*
X206475674Y-92938574D01*
X206591399Y-92843601D01*
X206615202Y-92814597D01*
X207636200Y-91793600D01*
X209494147Y-91793600D01*
X209451686Y-91896110D01*
G04 #@! TA.AperFunction,Conductor*
D21*
G36*
X209451686Y-91896110D02*
G01*
X209398000Y-92166008D01*
X209398000Y-92441192D01*
X209451686Y-92711090D01*
X209556995Y-92965327D01*
X209709880Y-93194135D01*
X209904465Y-93388720D01*
X210133273Y-93541605D01*
X210387510Y-93646914D01*
X210657408Y-93700600D01*
X210932592Y-93700600D01*
X211202490Y-93646914D01*
X211347240Y-93586956D01*
X210189698Y-94744499D01*
X206532823Y-94744499D01*
X206495500Y-94740823D01*
X206458177Y-94744499D01*
X206458168Y-94744499D01*
X206346515Y-94755496D01*
X206203254Y-94798953D01*
X206071225Y-94869525D01*
X205955500Y-94964498D01*
X205931702Y-94993496D01*
X204493502Y-96431697D01*
X204464498Y-96455500D01*
X204411324Y-96520293D01*
X204369525Y-96571225D01*
X204337656Y-96630848D01*
X204298953Y-96703255D01*
X204255496Y-96846516D01*
X204244499Y-96958169D01*
X204244499Y-96958179D01*
X204240823Y-96995501D01*
X204244499Y-97032824D01*
X204244500Y-100925978D01*
X204240000Y-100971666D01*
X204240000Y-100971676D01*
X204236324Y-101008998D01*
X204240000Y-101046321D01*
X204240001Y-104501197D01*
X202856376Y-105884823D01*
X202841912Y-105878832D01*
X202526033Y-105816000D01*
X202203967Y-105816000D01*
X201888088Y-105878832D01*
X201590537Y-106002082D01*
X201322748Y-106181013D01*
X201095013Y-106408748D01*
X200916082Y-106676537D01*
X200792832Y-106974088D01*
X200730000Y-107289967D01*
X200730000Y-107612033D01*
X200792832Y-107927912D01*
X200916082Y-108225463D01*
X201095013Y-108493252D01*
X201322748Y-108720987D01*
X201590537Y-108899918D01*
X201888088Y-109023168D01*
X202203967Y-109086000D01*
X202526033Y-109086000D01*
X202841912Y-109023168D01*
X203139463Y-108899918D01*
X203407252Y-108720987D01*
X203634987Y-108493252D01*
X203813918Y-108225463D01*
X203937168Y-107927912D01*
X204000000Y-107612033D01*
X204000000Y-107337000D01*
X207502928Y-107337000D01*
X207502928Y-108837000D01*
X207519992Y-109010254D01*
X207570528Y-109176850D01*
X207652595Y-109330386D01*
X207763038Y-109464962D01*
X207897614Y-109575405D01*
X208051150Y-109657472D01*
X208217746Y-109708008D01*
X208391000Y-109725072D01*
X209891000Y-109725072D01*
X210064254Y-109708008D01*
X210230850Y-109657472D01*
X210384386Y-109575405D01*
X210518962Y-109464962D01*
X210629405Y-109330386D01*
X210711472Y-109176850D01*
X210762008Y-109010254D01*
X210779072Y-108837000D01*
X210779072Y-107448006D01*
X210780547Y-107445246D01*
X210787175Y-107423397D01*
X210824004Y-107301985D01*
X210835001Y-107190332D01*
X210835001Y-107190322D01*
X210838677Y-107152999D01*
X210835001Y-107115676D01*
X210835001Y-102212323D01*
X210838677Y-102175001D01*
X210835001Y-102137678D01*
X210835001Y-102137668D01*
X210824004Y-102026015D01*
X210780547Y-101882754D01*
X210742217Y-101811044D01*
X210709975Y-101750724D01*
X210638800Y-101663998D01*
X210615002Y-101635000D01*
X210586004Y-101611202D01*
X210356167Y-101381365D01*
X210385000Y-101236411D01*
X210385000Y-100963589D01*
X210331775Y-100696011D01*
X210227371Y-100443957D01*
X210075799Y-100217114D01*
X209882886Y-100024201D01*
X209656043Y-99872629D01*
X209601412Y-99850000D01*
X209656043Y-99827371D01*
X209882886Y-99675799D01*
X210075799Y-99482886D01*
X210227371Y-99256043D01*
X210331775Y-99003989D01*
X210385000Y-98736411D01*
X210385000Y-98463589D01*
X210331775Y-98196011D01*
X210227371Y-97943957D01*
X210075799Y-97717114D01*
X209882886Y-97524201D01*
X209656043Y-97372629D01*
X209403989Y-97268225D01*
X209136411Y-97215000D01*
X208863589Y-97215000D01*
X208596011Y-97268225D01*
X208343957Y-97372629D01*
X208117114Y-97524201D01*
X207924201Y-97717114D01*
X207772629Y-97943957D01*
X207668225Y-98196011D01*
X207615000Y-98463589D01*
X207615000Y-98736411D01*
X207668225Y-99003989D01*
X207772629Y-99256043D01*
X207924201Y-99482886D01*
X208117114Y-99675799D01*
X208343957Y-99827371D01*
X208398588Y-99850000D01*
X208343957Y-99872629D01*
X208117114Y-100024201D01*
X207924201Y-100217114D01*
X207772629Y-100443957D01*
X207668225Y-100696011D01*
X207615000Y-100963589D01*
X207615000Y-101236411D01*
X207668225Y-101503989D01*
X207772629Y-101756043D01*
X207924201Y-101982886D01*
X208117114Y-102175799D01*
X208343957Y-102327371D01*
X208398588Y-102350000D01*
X208343957Y-102372629D01*
X208117114Y-102524201D01*
X207924201Y-102717114D01*
X207772629Y-102943957D01*
X207668225Y-103196011D01*
X207615000Y-103463589D01*
X207615000Y-103736411D01*
X207668225Y-104003989D01*
X207772629Y-104256043D01*
X207924201Y-104482886D01*
X208117114Y-104675799D01*
X208343957Y-104827371D01*
X208596011Y-104931775D01*
X208863589Y-104985000D01*
X209136411Y-104985000D01*
X209315001Y-104949476D01*
X209315001Y-106448928D01*
X208391000Y-106448928D01*
X208217746Y-106465992D01*
X208051150Y-106516528D01*
X207897614Y-106598595D01*
X207763038Y-106709038D01*
X207652595Y-106843614D01*
X207570528Y-106997150D01*
X207519992Y-107163746D01*
X207502928Y-107337000D01*
X204000000Y-107337000D01*
X204000000Y-107289967D01*
X203937168Y-106974088D01*
X203931177Y-106959624D01*
X205511003Y-105379799D01*
X205540001Y-105356001D01*
X205634974Y-105240276D01*
X205705546Y-105108247D01*
X205749003Y-104964986D01*
X205760000Y-104853333D01*
X205760000Y-104853325D01*
X205763676Y-104816000D01*
X205760000Y-104778675D01*
X205760000Y-101087511D01*
X205764499Y-101041832D01*
X205768176Y-101004499D01*
X205764499Y-100967166D01*
X205764499Y-97310302D01*
X206810303Y-96264499D01*
X210467177Y-96264499D01*
X210504499Y-96268175D01*
X210541821Y-96264499D01*
X210541832Y-96264499D01*
X210653485Y-96253502D01*
X210796746Y-96210045D01*
X210928775Y-96139473D01*
X211044500Y-96044500D01*
X211068303Y-96015496D01*
X213000001Y-94083799D01*
X213000001Y-118944970D01*
X206023282Y-114919645D01*
X205945978Y-114733018D01*
X205832710Y-114563500D01*
X205688547Y-114419337D01*
X205519029Y-114306069D01*
X205330671Y-114228048D01*
X205130712Y-114188274D01*
X204926834Y-114188274D01*
X204799329Y-114213636D01*
X203947529Y-113722413D01*
X208185192Y-113722413D01*
X208280956Y-113986814D01*
X208570571Y-114127704D01*
X208882108Y-114209384D01*
X209203595Y-114228718D01*
X209522675Y-114184961D01*
X209827088Y-114079795D01*
X210001044Y-113986814D01*
X210096808Y-113722413D01*
X209141000Y-112766605D01*
X208185192Y-113722413D01*
X203947529Y-113722413D01*
X202087218Y-112649595D01*
X207499282Y-112649595D01*
X207543039Y-112968675D01*
X207648205Y-113273088D01*
X207741186Y-113447044D01*
X208005587Y-113542808D01*
X208961395Y-112587000D01*
X209320605Y-112587000D01*
X210276413Y-113542808D01*
X210540814Y-113447044D01*
X210681704Y-113157429D01*
X210763384Y-112845892D01*
X210782718Y-112524405D01*
X210738961Y-112205325D01*
X210633795Y-111900912D01*
X210540814Y-111726956D01*
X210276413Y-111631192D01*
X209320605Y-112587000D01*
X208961395Y-112587000D01*
X208005587Y-111631192D01*
X207741186Y-111726956D01*
X207600296Y-112016571D01*
X207518616Y-112328108D01*
X207499282Y-112649595D01*
X202087218Y-112649595D01*
X200009823Y-111451587D01*
X208185192Y-111451587D01*
X209141000Y-112407395D01*
X210096808Y-111451587D01*
X210001044Y-111187186D01*
X209711429Y-111046296D01*
X209399892Y-110964616D01*
X209078405Y-110945282D01*
X208759325Y-110989039D01*
X208454912Y-111094205D01*
X208280956Y-111187186D01*
X208185192Y-111451587D01*
X200009823Y-111451587D01*
X195227999Y-108693969D01*
X195227999Y-102086413D01*
X201409192Y-102086413D01*
X201504956Y-102350814D01*
X201794571Y-102491704D01*
X202106108Y-102573384D01*
X202427595Y-102592718D01*
X202746675Y-102548961D01*
X203051088Y-102443795D01*
X203225044Y-102350814D01*
X203320808Y-102086413D01*
X202365000Y-101130605D01*
X201409192Y-102086413D01*
X195227999Y-102086413D01*
X195227999Y-101013595D01*
X200723282Y-101013595D01*
X200767039Y-101332675D01*
X200872205Y-101637088D01*
X200965186Y-101811044D01*
X201229587Y-101906808D01*
X202185395Y-100951000D01*
X202544605Y-100951000D01*
X203500413Y-101906808D01*
X203764814Y-101811044D01*
X203905704Y-101521429D01*
X203987384Y-101209892D01*
X204006718Y-100888405D01*
X203962961Y-100569325D01*
X203857795Y-100264912D01*
X203764814Y-100090956D01*
X203500413Y-99995192D01*
X202544605Y-100951000D01*
X202185395Y-100951000D01*
X201229587Y-99995192D01*
X200965186Y-100090956D01*
X200824296Y-100380571D01*
X200742616Y-100692108D01*
X200723282Y-101013595D01*
X195227999Y-101013595D01*
X195227999Y-99815587D01*
X201409192Y-99815587D01*
X202365000Y-100771395D01*
X203320808Y-99815587D01*
X203225044Y-99551186D01*
X202935429Y-99410296D01*
X202623892Y-99328616D01*
X202302405Y-99309282D01*
X201983325Y-99353039D01*
X201678912Y-99458205D01*
X201504956Y-99551186D01*
X201409192Y-99815587D01*
X195227999Y-99815587D01*
X195227999Y-97285040D01*
X195232494Y-97285483D01*
X195236451Y-97285899D01*
X195294721Y-97291612D01*
X195294723Y-97291612D01*
X195329123Y-97295000D01*
X198798877Y-97295000D01*
X198828737Y-97292059D01*
X198830442Y-97292071D01*
X198840308Y-97291104D01*
X198868197Y-97288173D01*
X198903184Y-97284727D01*
X198910290Y-97282572D01*
X198961555Y-97272048D01*
X199024787Y-97259986D01*
X199034277Y-97257120D01*
X199090210Y-97239806D01*
X199149494Y-97214885D01*
X199209199Y-97190762D01*
X199217952Y-97186107D01*
X199269455Y-97158259D01*
X199322775Y-97122293D01*
X199376649Y-97087039D01*
X199384331Y-97080774D01*
X199429444Y-97043453D01*
X199474765Y-96997813D01*
X199520765Y-96952767D01*
X199527083Y-96945129D01*
X199564089Y-96899755D01*
X199599689Y-96846172D01*
X199636050Y-96793069D01*
X199640765Y-96784349D01*
X199668253Y-96732653D01*
X199692761Y-96673194D01*
X199718129Y-96614006D01*
X199721060Y-96604536D01*
X199737983Y-96548485D01*
X199750481Y-96485369D01*
X199762920Y-96426844D01*
X199763727Y-96424184D01*
X199764483Y-96416506D01*
X199764899Y-96412549D01*
X199770612Y-96354279D01*
X199770612Y-96354277D01*
X199774000Y-96319877D01*
X199774000Y-95362123D01*
X199771059Y-95332263D01*
X199771071Y-95330558D01*
X199770104Y-95320692D01*
X199767173Y-95292803D01*
X199763727Y-95257816D01*
X199761572Y-95250710D01*
X199751048Y-95199445D01*
X199738986Y-95136213D01*
X199736120Y-95126723D01*
X199718806Y-95070791D01*
X199693884Y-95011503D01*
X199669762Y-94951801D01*
X199665107Y-94943048D01*
X199637259Y-94891545D01*
X199601278Y-94838202D01*
X199566039Y-94784351D01*
X199559777Y-94776674D01*
X199559773Y-94776668D01*
X199559768Y-94776663D01*
X199522453Y-94731556D01*
X199476797Y-94686218D01*
X199431767Y-94640235D01*
X199424129Y-94633917D01*
X199378756Y-94596912D01*
X199325180Y-94561317D01*
X199272069Y-94524950D01*
X199263349Y-94520235D01*
X199211653Y-94492747D01*
X199152183Y-94468234D01*
X199093006Y-94442871D01*
X199083536Y-94439940D01*
X199027485Y-94423017D01*
X198964361Y-94410518D01*
X198905846Y-94398080D01*
X198903184Y-94397273D01*
X198895490Y-94396515D01*
X198891548Y-94396101D01*
X198833279Y-94390388D01*
X198833277Y-94390388D01*
X198798877Y-94387000D01*
X195329123Y-94387000D01*
X195299263Y-94389941D01*
X195297558Y-94389929D01*
X195287692Y-94390896D01*
X195259803Y-94393827D01*
X195227999Y-94396960D01*
X195227999Y-93662924D01*
X195417408Y-93700600D01*
X195692592Y-93700600D01*
X195962490Y-93646914D01*
X196216727Y-93541605D01*
X196445535Y-93388720D01*
X196640120Y-93194135D01*
X196727341Y-93063600D01*
X206014076Y-93063600D01*
X206051398Y-93067276D01*
X206088720Y-93063600D01*
X206088731Y-93063600D01*
X206200384Y-93052603D01*
X206343645Y-93009146D01*
X206475674Y-92938574D01*
X206591399Y-92843601D01*
X206615202Y-92814597D01*
X207636200Y-91793600D01*
X209494147Y-91793600D01*
X209451686Y-91896110D01*
G37*
G04 #@! TD.AperFunction*
D20*
X192142207Y-59128269D02*
X192195798Y-59163875D01*
X192248902Y-59200236D01*
X192257622Y-59204951D01*
X192651549Y-59414405D01*
X192711019Y-59438917D01*
X192770191Y-59464278D01*
X192779661Y-59467209D01*
X193206768Y-59596160D01*
X193269890Y-59608658D01*
X193332836Y-59622038D01*
X193342695Y-59623074D01*
X193786209Y-59666561D01*
X193821123Y-59670000D01*
X211389278Y-59670000D01*
X211729450Y-59703355D01*
X212023269Y-59792063D01*
X212294262Y-59936152D01*
X212532102Y-60130130D01*
X212727741Y-60366617D01*
X212873716Y-60636591D01*
X212964475Y-60929786D01*
X213000000Y-61267787D01*
X213000000Y-62016545D01*
X212991935Y-62008480D01*
X212763127Y-61855595D01*
X212508890Y-61750286D01*
X212238992Y-61696600D01*
X211963808Y-61696600D01*
X211693910Y-61750286D01*
X211439673Y-61855595D01*
X211210865Y-62008480D01*
X211016280Y-62203065D01*
X210929059Y-62333600D01*
X198458722Y-62333600D01*
X198421399Y-62329924D01*
X198384076Y-62333600D01*
X198384067Y-62333600D01*
X198272414Y-62344597D01*
X198129153Y-62388054D01*
X198100397Y-62403425D01*
X197966520Y-62203065D01*
X197771935Y-62008480D01*
X197543127Y-61855595D01*
X197288890Y-61750286D01*
X197018992Y-61696600D01*
X196743808Y-61696600D01*
X196473910Y-61750286D01*
X196219673Y-61855595D01*
X195990865Y-62008480D01*
X195796280Y-62203065D01*
X195643395Y-62431873D01*
X195538086Y-62686110D01*
X195484400Y-62956008D01*
X195484400Y-62966600D01*
X195417408Y-62966600D01*
X195147510Y-63020286D01*
X194893273Y-63125595D01*
X194664465Y-63278480D01*
X194469880Y-63473065D01*
X194316995Y-63701873D01*
X194211686Y-63956110D01*
X194158000Y-64226008D01*
X194158000Y-64501192D01*
X194211686Y-64771090D01*
X194316995Y-65025327D01*
X194469880Y-65254135D01*
X194664465Y-65448720D01*
X194893273Y-65601605D01*
X194964943Y-65631292D01*
X194951977Y-65635964D01*
X194836020Y-65697944D01*
X194769040Y-65938035D01*
X195555000Y-66723995D01*
X195569143Y-66709853D01*
X195748748Y-66889458D01*
X195734605Y-66903600D01*
X196520565Y-67689560D01*
X196564663Y-67677258D01*
X196881400Y-67993995D01*
X197667360Y-67208035D01*
X197600380Y-66967944D01*
X197464640Y-66904115D01*
X197543127Y-66871605D01*
X197771935Y-66718720D01*
X197966520Y-66524135D01*
X198119405Y-66295327D01*
X198224714Y-66041090D01*
X198278400Y-65771192D01*
X198278400Y-65496008D01*
X198224714Y-65226110D01*
X198119405Y-64971873D01*
X197966520Y-64743065D01*
X197906628Y-64683173D01*
X198018209Y-64571592D01*
X198035774Y-64659898D01*
X198113795Y-64848256D01*
X198227063Y-65017774D01*
X198371226Y-65161937D01*
X198540744Y-65275205D01*
X198729102Y-65353226D01*
X198929061Y-65393000D01*
X199132939Y-65393000D01*
X199332898Y-65353226D01*
X199521256Y-65275205D01*
X199690774Y-65161937D01*
X199729111Y-65123600D01*
X209622659Y-65123600D01*
X209709880Y-65254135D01*
X209904465Y-65448720D01*
X210133273Y-65601605D01*
X210210515Y-65633600D01*
X210133273Y-65665595D01*
X209904465Y-65818480D01*
X209709880Y-66013065D01*
X209622659Y-66143600D01*
X199774311Y-66143600D01*
X199690774Y-66060063D01*
X199521256Y-65946795D01*
X199332898Y-65868774D01*
X199132939Y-65829000D01*
X198929061Y-65829000D01*
X198729102Y-65868774D01*
X198540744Y-65946795D01*
X198371226Y-66060063D01*
X198227063Y-66204226D01*
X198113795Y-66373744D01*
X198035774Y-66562102D01*
X197996000Y-66762061D01*
X197996000Y-66965939D01*
X198035774Y-67165898D01*
X198113795Y-67354256D01*
X198191959Y-67471237D01*
X198117276Y-67511157D01*
X198087056Y-67454620D01*
X197846965Y-67387640D01*
X197061005Y-68173600D01*
X197075148Y-68187743D01*
X196895543Y-68367348D01*
X196881400Y-68353205D01*
X196867258Y-68367348D01*
X196687653Y-68187743D01*
X196701795Y-68173600D01*
X195915835Y-67387640D01*
X195871737Y-67399942D01*
X195555000Y-67083205D01*
X194769040Y-67869165D01*
X194836020Y-68109256D01*
X194971760Y-68173085D01*
X194893273Y-68205595D01*
X194664465Y-68358480D01*
X194469880Y-68553065D01*
X194316995Y-68781873D01*
X194211686Y-69036110D01*
X194158000Y-69306008D01*
X194158000Y-69581192D01*
X194211686Y-69851090D01*
X194316995Y-70105327D01*
X194469880Y-70334135D01*
X194664465Y-70528720D01*
X194893273Y-70681605D01*
X194970515Y-70713600D01*
X194893273Y-70745595D01*
X194664465Y-70898480D01*
X194469880Y-71093065D01*
X194316995Y-71321873D01*
X194211686Y-71576110D01*
X194158000Y-71846008D01*
X194158000Y-72121192D01*
X194211686Y-72391090D01*
X194316995Y-72645327D01*
X194469880Y-72874135D01*
X194664465Y-73068720D01*
X194893273Y-73221605D01*
X194970515Y-73253600D01*
X194893273Y-73285595D01*
X194664465Y-73438480D01*
X194469880Y-73633065D01*
X194316995Y-73861873D01*
X194211686Y-74116110D01*
X194158000Y-74386008D01*
X194158000Y-74661192D01*
X194188628Y-74815170D01*
X191946046Y-77057753D01*
X191904190Y-66975617D01*
X194153090Y-66975617D01*
X194194078Y-67247733D01*
X194287364Y-67506623D01*
X194349344Y-67622580D01*
X194589435Y-67689560D01*
X195375395Y-66903600D01*
X194589435Y-66117640D01*
X194349344Y-66184620D01*
X194232244Y-66433648D01*
X194165977Y-66700735D01*
X194153090Y-66975617D01*
X191904190Y-66975617D01*
X191870691Y-58906827D01*
X192142207Y-59128269D01*
G04 #@! TA.AperFunction,Conductor*
D21*
G36*
X192142207Y-59128269D02*
G01*
X192195798Y-59163875D01*
X192248902Y-59200236D01*
X192257622Y-59204951D01*
X192651549Y-59414405D01*
X192711019Y-59438917D01*
X192770191Y-59464278D01*
X192779661Y-59467209D01*
X193206768Y-59596160D01*
X193269890Y-59608658D01*
X193332836Y-59622038D01*
X193342695Y-59623074D01*
X193786209Y-59666561D01*
X193821123Y-59670000D01*
X211389278Y-59670000D01*
X211729450Y-59703355D01*
X212023269Y-59792063D01*
X212294262Y-59936152D01*
X212532102Y-60130130D01*
X212727741Y-60366617D01*
X212873716Y-60636591D01*
X212964475Y-60929786D01*
X213000000Y-61267787D01*
X213000000Y-62016545D01*
X212991935Y-62008480D01*
X212763127Y-61855595D01*
X212508890Y-61750286D01*
X212238992Y-61696600D01*
X211963808Y-61696600D01*
X211693910Y-61750286D01*
X211439673Y-61855595D01*
X211210865Y-62008480D01*
X211016280Y-62203065D01*
X210929059Y-62333600D01*
X198458722Y-62333600D01*
X198421399Y-62329924D01*
X198384076Y-62333600D01*
X198384067Y-62333600D01*
X198272414Y-62344597D01*
X198129153Y-62388054D01*
X198100397Y-62403425D01*
X197966520Y-62203065D01*
X197771935Y-62008480D01*
X197543127Y-61855595D01*
X197288890Y-61750286D01*
X197018992Y-61696600D01*
X196743808Y-61696600D01*
X196473910Y-61750286D01*
X196219673Y-61855595D01*
X195990865Y-62008480D01*
X195796280Y-62203065D01*
X195643395Y-62431873D01*
X195538086Y-62686110D01*
X195484400Y-62956008D01*
X195484400Y-62966600D01*
X195417408Y-62966600D01*
X195147510Y-63020286D01*
X194893273Y-63125595D01*
X194664465Y-63278480D01*
X194469880Y-63473065D01*
X194316995Y-63701873D01*
X194211686Y-63956110D01*
X194158000Y-64226008D01*
X194158000Y-64501192D01*
X194211686Y-64771090D01*
X194316995Y-65025327D01*
X194469880Y-65254135D01*
X194664465Y-65448720D01*
X194893273Y-65601605D01*
X194964943Y-65631292D01*
X194951977Y-65635964D01*
X194836020Y-65697944D01*
X194769040Y-65938035D01*
X195555000Y-66723995D01*
X195569143Y-66709853D01*
X195748748Y-66889458D01*
X195734605Y-66903600D01*
X196520565Y-67689560D01*
X196564663Y-67677258D01*
X196881400Y-67993995D01*
X197667360Y-67208035D01*
X197600380Y-66967944D01*
X197464640Y-66904115D01*
X197543127Y-66871605D01*
X197771935Y-66718720D01*
X197966520Y-66524135D01*
X198119405Y-66295327D01*
X198224714Y-66041090D01*
X198278400Y-65771192D01*
X198278400Y-65496008D01*
X198224714Y-65226110D01*
X198119405Y-64971873D01*
X197966520Y-64743065D01*
X197906628Y-64683173D01*
X198018209Y-64571592D01*
X198035774Y-64659898D01*
X198113795Y-64848256D01*
X198227063Y-65017774D01*
X198371226Y-65161937D01*
X198540744Y-65275205D01*
X198729102Y-65353226D01*
X198929061Y-65393000D01*
X199132939Y-65393000D01*
X199332898Y-65353226D01*
X199521256Y-65275205D01*
X199690774Y-65161937D01*
X199729111Y-65123600D01*
X209622659Y-65123600D01*
X209709880Y-65254135D01*
X209904465Y-65448720D01*
X210133273Y-65601605D01*
X210210515Y-65633600D01*
X210133273Y-65665595D01*
X209904465Y-65818480D01*
X209709880Y-66013065D01*
X209622659Y-66143600D01*
X199774311Y-66143600D01*
X199690774Y-66060063D01*
X199521256Y-65946795D01*
X199332898Y-65868774D01*
X199132939Y-65829000D01*
X198929061Y-65829000D01*
X198729102Y-65868774D01*
X198540744Y-65946795D01*
X198371226Y-66060063D01*
X198227063Y-66204226D01*
X198113795Y-66373744D01*
X198035774Y-66562102D01*
X197996000Y-66762061D01*
X197996000Y-66965939D01*
X198035774Y-67165898D01*
X198113795Y-67354256D01*
X198191959Y-67471237D01*
X198117276Y-67511157D01*
X198087056Y-67454620D01*
X197846965Y-67387640D01*
X197061005Y-68173600D01*
X197075148Y-68187743D01*
X196895543Y-68367348D01*
X196881400Y-68353205D01*
X196867258Y-68367348D01*
X196687653Y-68187743D01*
X196701795Y-68173600D01*
X195915835Y-67387640D01*
X195871737Y-67399942D01*
X195555000Y-67083205D01*
X194769040Y-67869165D01*
X194836020Y-68109256D01*
X194971760Y-68173085D01*
X194893273Y-68205595D01*
X194664465Y-68358480D01*
X194469880Y-68553065D01*
X194316995Y-68781873D01*
X194211686Y-69036110D01*
X194158000Y-69306008D01*
X194158000Y-69581192D01*
X194211686Y-69851090D01*
X194316995Y-70105327D01*
X194469880Y-70334135D01*
X194664465Y-70528720D01*
X194893273Y-70681605D01*
X194970515Y-70713600D01*
X194893273Y-70745595D01*
X194664465Y-70898480D01*
X194469880Y-71093065D01*
X194316995Y-71321873D01*
X194211686Y-71576110D01*
X194158000Y-71846008D01*
X194158000Y-72121192D01*
X194211686Y-72391090D01*
X194316995Y-72645327D01*
X194469880Y-72874135D01*
X194664465Y-73068720D01*
X194893273Y-73221605D01*
X194970515Y-73253600D01*
X194893273Y-73285595D01*
X194664465Y-73438480D01*
X194469880Y-73633065D01*
X194316995Y-73861873D01*
X194211686Y-74116110D01*
X194158000Y-74386008D01*
X194158000Y-74661192D01*
X194188628Y-74815170D01*
X191946046Y-77057753D01*
X191904190Y-66975617D01*
X194153090Y-66975617D01*
X194194078Y-67247733D01*
X194287364Y-67506623D01*
X194349344Y-67622580D01*
X194589435Y-67689560D01*
X195375395Y-66903600D01*
X194589435Y-66117640D01*
X194349344Y-66184620D01*
X194232244Y-66433648D01*
X194165977Y-66700735D01*
X194153090Y-66975617D01*
X191904190Y-66975617D01*
X191870691Y-58906827D01*
X192142207Y-59128269D01*
G37*
G04 #@! TD.AperFunction*
D20*
X197075148Y-70699458D02*
X197061005Y-70713600D01*
X197846965Y-71499560D01*
X198087056Y-71432580D01*
X198116040Y-71370943D01*
X198176063Y-71460774D01*
X198320226Y-71604937D01*
X198489744Y-71718205D01*
X198678102Y-71796226D01*
X198878061Y-71836000D01*
X199081939Y-71836000D01*
X199281898Y-71796226D01*
X199470256Y-71718205D01*
X199639774Y-71604937D01*
X199771111Y-71473600D01*
X209491076Y-71473600D01*
X209472244Y-71513648D01*
X209405977Y-71780735D01*
X209393090Y-72055617D01*
X209434078Y-72327733D01*
X209493845Y-72493600D01*
X198527484Y-72493600D01*
X198490161Y-72489924D01*
X198452838Y-72493600D01*
X198452829Y-72493600D01*
X198341176Y-72504597D01*
X198197915Y-72548054D01*
X198118492Y-72590507D01*
X197966520Y-72363065D01*
X197771935Y-72168480D01*
X197543127Y-72015595D01*
X197471457Y-71985908D01*
X197484423Y-71981236D01*
X197600380Y-71919256D01*
X197667360Y-71679165D01*
X196881400Y-70893205D01*
X196867258Y-70907348D01*
X196687653Y-70727743D01*
X196701795Y-70713600D01*
X196687653Y-70699458D01*
X196867258Y-70519853D01*
X196881400Y-70533995D01*
X196895543Y-70519853D01*
X197075148Y-70699458D01*
G04 #@! TA.AperFunction,Conductor*
D21*
G36*
X197075148Y-70699458D02*
G01*
X197061005Y-70713600D01*
X197846965Y-71499560D01*
X198087056Y-71432580D01*
X198116040Y-71370943D01*
X198176063Y-71460774D01*
X198320226Y-71604937D01*
X198489744Y-71718205D01*
X198678102Y-71796226D01*
X198878061Y-71836000D01*
X199081939Y-71836000D01*
X199281898Y-71796226D01*
X199470256Y-71718205D01*
X199639774Y-71604937D01*
X199771111Y-71473600D01*
X209491076Y-71473600D01*
X209472244Y-71513648D01*
X209405977Y-71780735D01*
X209393090Y-72055617D01*
X209434078Y-72327733D01*
X209493845Y-72493600D01*
X198527484Y-72493600D01*
X198490161Y-72489924D01*
X198452838Y-72493600D01*
X198452829Y-72493600D01*
X198341176Y-72504597D01*
X198197915Y-72548054D01*
X198118492Y-72590507D01*
X197966520Y-72363065D01*
X197771935Y-72168480D01*
X197543127Y-72015595D01*
X197471457Y-71985908D01*
X197484423Y-71981236D01*
X197600380Y-71919256D01*
X197667360Y-71679165D01*
X196881400Y-70893205D01*
X196867258Y-70907348D01*
X196687653Y-70727743D01*
X196701795Y-70713600D01*
X196687653Y-70699458D01*
X196867258Y-70519853D01*
X196881400Y-70533995D01*
X196895543Y-70519853D01*
X197075148Y-70699458D01*
G37*
G04 #@! TD.AperFunction*
D20*
X210988748Y-71969458D02*
X210974605Y-71983600D01*
X210988748Y-71997743D01*
X210809143Y-72177348D01*
X210795000Y-72163205D01*
X210780858Y-72177348D01*
X210601253Y-71997743D01*
X210615395Y-71983600D01*
X210601253Y-71969458D01*
X210780858Y-71789853D01*
X210795000Y-71803995D01*
X210809143Y-71789853D01*
X210988748Y-71969458D01*
G04 #@! TA.AperFunction,Conductor*
D21*
G36*
X210988748Y-71969458D02*
G01*
X210974605Y-71983600D01*
X210988748Y-71997743D01*
X210809143Y-72177348D01*
X210795000Y-72163205D01*
X210780858Y-72177348D01*
X210601253Y-71997743D01*
X210615395Y-71983600D01*
X210601253Y-71969458D01*
X210780858Y-71789853D01*
X210795000Y-71803995D01*
X210809143Y-71789853D01*
X210988748Y-71969458D01*
G37*
G04 #@! TD.AperFunction*
D20*
X210988748Y-69429458D02*
X210974605Y-69443600D01*
X210988748Y-69457743D01*
X210809143Y-69637348D01*
X210795000Y-69623205D01*
X210780858Y-69637348D01*
X210601253Y-69457743D01*
X210615395Y-69443600D01*
X210601253Y-69429458D01*
X210780858Y-69249853D01*
X210795000Y-69263995D01*
X210809143Y-69249853D01*
X210988748Y-69429458D01*
G04 #@! TA.AperFunction,Conductor*
D21*
G36*
X210988748Y-69429458D02*
G01*
X210974605Y-69443600D01*
X210988748Y-69457743D01*
X210809143Y-69637348D01*
X210795000Y-69623205D01*
X210780858Y-69637348D01*
X210601253Y-69457743D01*
X210615395Y-69443600D01*
X210601253Y-69429458D01*
X210780858Y-69249853D01*
X210795000Y-69263995D01*
X210809143Y-69249853D01*
X210988748Y-69429458D01*
G37*
G04 #@! TD.AperFunction*
D20*
X212295148Y-65619458D02*
X212281005Y-65633600D01*
X212295148Y-65647743D01*
X212115543Y-65827348D01*
X212101400Y-65813205D01*
X212087258Y-65827348D01*
X211907653Y-65647743D01*
X211921795Y-65633600D01*
X211907653Y-65619458D01*
X212087258Y-65439853D01*
X212101400Y-65453995D01*
X212115543Y-65439853D01*
X212295148Y-65619458D01*
G04 #@! TA.AperFunction,Conductor*
D21*
G36*
X212295148Y-65619458D02*
G01*
X212281005Y-65633600D01*
X212295148Y-65647743D01*
X212115543Y-65827348D01*
X212101400Y-65813205D01*
X212087258Y-65827348D01*
X211907653Y-65647743D01*
X211921795Y-65633600D01*
X211907653Y-65619458D01*
X212087258Y-65439853D01*
X212101400Y-65453995D01*
X212115543Y-65439853D01*
X212295148Y-65619458D01*
G37*
G04 #@! TD.AperFunction*
M02*
