G04 #@! TF.GenerationSoftware,KiCad,Pcbnew,(5.1.9-0-10_14)*
G04 #@! TF.CreationDate,2021-11-12T15:23:44+01:00*
G04 #@! TF.ProjectId,tairakb,74616972-616b-4622-9e6b-696361645f70,1.1*
G04 #@! TF.SameCoordinates,Original*
G04 #@! TF.FileFunction,Paste,Top*
G04 #@! TF.FilePolarity,Positive*
%FSLAX46Y46*%
G04 Gerber Fmt 4.6, Leading zero omitted, Abs format (unit mm)*
G04 Created by KiCad (PCBNEW (5.1.9-0-10_14)) date 2021-11-12 15:23:44*
%MOMM*%
%LPD*%
G01*
G04 APERTURE LIST*
%ADD10C,0.100000*%
%ADD11R,0.950000X1.300000*%
%ADD12R,1.300000X0.950000*%
%ADD13R,1.600000X2.200000*%
G04 APERTURE END LIST*
D10*
G36*
X199208862Y-148559612D02*
G01*
X198386138Y-148084612D01*
X199036138Y-146958778D01*
X199858862Y-147433778D01*
X199208862Y-148559612D01*
G37*
G36*
X200983862Y-145485222D02*
G01*
X200161138Y-145010222D01*
X200811138Y-143884388D01*
X201633862Y-144359388D01*
X200983862Y-145485222D01*
G37*
G36*
X208314862Y-132847612D02*
G01*
X207492138Y-132372612D01*
X208142138Y-131246778D01*
X208964862Y-131721778D01*
X208314862Y-132847612D01*
G37*
G36*
X210089862Y-129773222D02*
G01*
X209267138Y-129298222D01*
X209917138Y-128172388D01*
X210739862Y-128647388D01*
X210089862Y-129773222D01*
G37*
G36*
X191676862Y-123238612D02*
G01*
X190854138Y-122763612D01*
X191504138Y-121637778D01*
X192326862Y-122112778D01*
X191676862Y-123238612D01*
G37*
G36*
X193451862Y-120164222D02*
G01*
X192629138Y-119689222D01*
X193279138Y-118563388D01*
X194101862Y-119038388D01*
X193451862Y-120164222D01*
G37*
G36*
X182616862Y-138957612D02*
G01*
X181794138Y-138482612D01*
X182444138Y-137356778D01*
X183266862Y-137831778D01*
X182616862Y-138957612D01*
G37*
G36*
X184391862Y-135883222D02*
G01*
X183569138Y-135408222D01*
X184219138Y-134282388D01*
X185041862Y-134757388D01*
X184391862Y-135883222D01*
G37*
D11*
X174431000Y-103785000D03*
X174431000Y-107335000D03*
X174259000Y-78352000D03*
X174259000Y-81902000D03*
X174431000Y-67785000D03*
X174431000Y-71335000D03*
D12*
X180511000Y-58331000D03*
X184061000Y-58331000D03*
D10*
G36*
X166023862Y-129431612D02*
G01*
X165201138Y-128956612D01*
X165851138Y-127830778D01*
X166673862Y-128305778D01*
X166023862Y-129431612D01*
G37*
G36*
X167798862Y-126357222D02*
G01*
X166976138Y-125882222D01*
X167626138Y-124756388D01*
X168448862Y-125231388D01*
X167798862Y-126357222D01*
G37*
D11*
X171132000Y-100177000D03*
X171132000Y-103727000D03*
X171132000Y-82177000D03*
X171132000Y-85727000D03*
X171132000Y-64177000D03*
X171132000Y-67727000D03*
X171132000Y-46177000D03*
X171132000Y-49727000D03*
D12*
X147243000Y-120856000D03*
X150793000Y-120856000D03*
D11*
X152150000Y-97795000D03*
X152150000Y-101345000D03*
X152150000Y-79795000D03*
X152150000Y-83345000D03*
X152150000Y-61795000D03*
X152150000Y-65345000D03*
X152150000Y-43795000D03*
X152150000Y-47345000D03*
X133133000Y-118140000D03*
X133133000Y-121690000D03*
X133133000Y-100140000D03*
X133133000Y-103690000D03*
X133133000Y-82140000D03*
X133133000Y-85690000D03*
X133133000Y-64140000D03*
X133133000Y-67690000D03*
X133133000Y-46140000D03*
X133133000Y-49690000D03*
X114118000Y-122865000D03*
X114118000Y-126415000D03*
X114118000Y-104865000D03*
X114118000Y-108415000D03*
X114118000Y-86865000D03*
X114118000Y-90415000D03*
X114118000Y-68865000D03*
X114118000Y-72415000D03*
X114118000Y-50865000D03*
X114118000Y-54415000D03*
X95118000Y-122865000D03*
X95118000Y-126415000D03*
X95118000Y-104865000D03*
X95118000Y-108415000D03*
X95118000Y-86865000D03*
X95118000Y-90415000D03*
X95118000Y-68865000D03*
X95118000Y-72415000D03*
X95118000Y-50865000D03*
X95118000Y-54415000D03*
D10*
G36*
X202225579Y-140788334D02*
G01*
X203325579Y-138883078D01*
X204711219Y-139683078D01*
X203611219Y-141588334D01*
X202225579Y-140788334D01*
G37*
G36*
X212592051Y-144233078D02*
G01*
X213692051Y-142327822D01*
X215077691Y-143127822D01*
X213977691Y-145033078D01*
X212592051Y-144233078D01*
G37*
G36*
X194725579Y-115508334D02*
G01*
X195825579Y-113603078D01*
X197211219Y-114403078D01*
X196111219Y-116308334D01*
X194725579Y-115508334D01*
G37*
G36*
X205092051Y-118953078D02*
G01*
X206192051Y-117047822D01*
X207577691Y-117847822D01*
X206477691Y-119753078D01*
X205092051Y-118953078D01*
G37*
D13*
X161341000Y-126560000D03*
X150641000Y-128760000D03*
X133145000Y-52913000D03*
X122445000Y-55113000D03*
D10*
G36*
X211295579Y-125070334D02*
G01*
X212395579Y-123165078D01*
X213781219Y-123965078D01*
X212681219Y-125870334D01*
X211295579Y-125070334D01*
G37*
G36*
X221662051Y-128515078D02*
G01*
X222762051Y-126609822D01*
X224147691Y-127409822D01*
X223047691Y-129315078D01*
X221662051Y-128515078D01*
G37*
G36*
X185655579Y-131219334D02*
G01*
X186755579Y-129314078D01*
X188141219Y-130114078D01*
X187041219Y-132019334D01*
X185655579Y-131219334D01*
G37*
G36*
X196022051Y-134664078D02*
G01*
X197122051Y-132758822D01*
X198507691Y-133558822D01*
X197407691Y-135464078D01*
X196022051Y-134664078D01*
G37*
D13*
X190145000Y-110294000D03*
X179445000Y-112494000D03*
X174345000Y-84894000D03*
X185045000Y-82694000D03*
X190145000Y-74294000D03*
X179445000Y-76494000D03*
X174345000Y-48894000D03*
X185045000Y-46694000D03*
D10*
G36*
X169070579Y-121634334D02*
G01*
X170170579Y-119729078D01*
X171556219Y-120529078D01*
X170456219Y-122434334D01*
X169070579Y-121634334D01*
G37*
G36*
X179437051Y-125079078D02*
G01*
X180537051Y-123173822D01*
X181922691Y-123973822D01*
X180822691Y-125879078D01*
X179437051Y-125079078D01*
G37*
D13*
X171145000Y-106913000D03*
X160445000Y-109113000D03*
X171145000Y-88913000D03*
X160445000Y-91113000D03*
X171145000Y-70913000D03*
X160445000Y-73113000D03*
X171145000Y-52913000D03*
X160445000Y-55113000D03*
X136345000Y-115132000D03*
X147045000Y-112932000D03*
X152145000Y-104532000D03*
X141445000Y-106732000D03*
X152145000Y-86532000D03*
X141445000Y-88732000D03*
X152145000Y-68532000D03*
X141445000Y-70732000D03*
X152145000Y-50532000D03*
X141445000Y-52732000D03*
X133145000Y-124913000D03*
X122445000Y-127113000D03*
X133145000Y-106913000D03*
X122445000Y-109113000D03*
X133145000Y-88913000D03*
X122445000Y-91113000D03*
X133145000Y-70913000D03*
X122445000Y-73113000D03*
X114145000Y-129675000D03*
X103445000Y-131875000D03*
X114145000Y-111675000D03*
X103445000Y-113875000D03*
X114145000Y-93675000D03*
X103445000Y-95875000D03*
X114145000Y-75675000D03*
X103445000Y-77875000D03*
X114145000Y-57675000D03*
X103445000Y-59875000D03*
X95145000Y-129675000D03*
X84445000Y-131875000D03*
X95145000Y-111675000D03*
X84445000Y-113875000D03*
X95145000Y-93675000D03*
X84445000Y-95875000D03*
X95145000Y-75675000D03*
X84445000Y-77875000D03*
X95145000Y-57675000D03*
X84445000Y-59875000D03*
M02*
